<svg width="800" height="500" xmlns="http://www.w3.org/2000/svg"><g transform="translate(100,10)"><style type="text/css"> .axis path, .axis line { fill: none; stroke: #777; shape-rendering: crispEdges; } .axis text { font-family: 'Arial'; font-size: 13px; } .tick { stroke-dasharray: 1, 2; }</style><rect class="bar" x="0" y="470" width="19.428571428571427" height="0" fill="red"></rect><rect class="bar" x="19.428571428571427" y="451.92307692307696" width="19.428571428571427" height="18.076923076923038" fill="red"></rect><rect class="bar" x="38.857142857142854" y="470" width="58.285714285714285" height="0" fill="red"></rect><rect class="bar" x="97.14285714285714" y="433.84615384615387" width="38.85714285714286" height="36.15384615384613" fill="red"></rect><rect class="bar" x="136" y="451.92307692307696" width="38.85714285714283" height="18.076923076923038" fill="red"></rect><rect class="bar" x="174.85714285714283" y="433.84615384615387" width="19.428571428571445" height="36.15384615384613" fill="red"></rect><rect class="bar" x="194.28571428571428" y="451.92307692307696" width="19.428571428571445" height="18.076923076923038" fill="red"></rect><rect class="bar" x="213.71428571428572" y="433.84615384615387" width="19.428571428571416" height="36.15384615384613" fill="red"></rect><rect class="bar" x="233.14285714285714" y="415.7692307692308" width="19.428571428571445" height="54.230769230769226" fill="red"></rect><rect class="bar" x="252.57142857142858" y="379.61538461538464" width="38.857142857142804" height="90.38461538461536" fill="red"></rect><rect class="bar" x="291.4285714285714" y="415.7692307692308" width="19.428571428571445" height="54.230769230769226" fill="red"></rect><rect class="bar" x="310.85714285714283" y="451.92307692307696" width="19.428571428571445" height="18.076923076923038" fill="red"></rect><rect class="bar" x="330.2857142857143" y="433.84615384615387" width="19.428571428571388" height="36.15384615384613" fill="red"></rect><rect class="bar" x="349.71428571428567" y="397.6923076923077" width="19.428571428571445" height="72.30769230769232" fill="red"></rect><rect class="bar" x="369.1428571428571" y="379.61538461538464" width="19.428571428571445" height="90.38461538461536" fill="red"></rect><rect class="bar" x="388.57142857142856" y="325.38461538461536" width="19.428571428571445" height="144.61538461538464" fill="red"></rect><rect class="bar" x="408" y="379.61538461538464" width="19.428571428571445" height="90.38461538461536" fill="red"></rect><rect class="bar" x="427.42857142857144" y="307.3076923076923" width="19.428571428571388" height="162.69230769230768" fill="red"></rect><rect class="bar" x="446.85714285714283" y="162.69230769230768" width="19.428571428571445" height="307.3076923076923" fill="red"></rect><rect class="bar" x="466.2857142857143" y="144.6153846153846" width="19.428571428571445" height="325.38461538461536" fill="red"></rect><rect class="bar" x="485.7142857142857" y="0" width="19.428571428571445" height="470" fill="red"></rect><rect class="bar" x="505.14285714285717" y="18.076923076923066" width="38.85714285714283" height="451.9230769230769" fill="red"></rect><rect class="bar" x="544" y="72.3076923076923" width="19.428571428571445" height="397.6923076923077" fill="red"></rect><rect class="bar" x="563.4285714285714" y="54.23076923076925" width="19.42857142857133" height="415.7692307692308" fill="red"></rect><rect class="bar" x="582.8571428571428" y="162.69230769230768" width="19.428571428571445" height="307.3076923076923" fill="red"></rect><rect class="bar" x="602.2857142857142" y="271.15384615384613" width="19.428571428571445" height="198.84615384615387" fill="red"></rect><rect class="bar" x="621.7142857142857" y="162.69230769230768" width="19.428571428571445" height="307.3076923076923" fill="red"></rect><rect class="bar" x="641.1428571428571" y="180.76923076923075" width="19.428571428571445" height="289.2307692307693" fill="red"></rect><rect class="bar" x="660.5714285714286" y="343.4615384615385" width="19.428571428571445" height="126.53846153846149" fill="red"></rect><text x="70" y="40" style="fill: black; font: 14px sans-serif;">AXELROD_R(1984):</text><g class="x axis" transform="translate(0,470)"><g class="tick" transform="translate(19.428571428571427,0)" style="opacity: 1;"><line y2="6" x2="0"></line><text dy=".71em" y="9" x="0" style="text-anchor: middle;">1,985</text></g><g class="tick" transform="translate(116.57142857142857,0)" style="opacity: 1;"><line y2="6" x2="0"></line><text dy=".71em" y="9" x="0" style="text-anchor: middle;">1,990</text></g><g class="tick" transform="translate(213.71428571428572,0)" style="opacity: 1;"><line y2="6" x2="0"></line><text dy=".71em" y="9" x="0" style="text-anchor: middle;">1,995</text></g><g class="tick" transform="translate(310.85714285714283,0)" style="opacity: 1;"><line y2="6" x2="0"></line><text dy=".71em" y="9" x="0" style="text-anchor: middle;">2,000</text></g><g class="tick" transform="translate(408,0)" style="opacity: 1;"><line y2="6" x2="0"></line><text dy=".71em" y="9" x="0" style="text-anchor: middle;">2,005</text></g><g class="tick" transform="translate(505.14285714285717,0)" style="opacity: 1;"><line y2="6" x2="0"></line><text dy=".71em" y="9" x="0" style="text-anchor: middle;">2,010</text></g><g class="tick" transform="translate(602.2857142857142,0)" style="opacity: 1;"><line y2="6" x2="0"></line><text dy=".71em" y="9" x="0" style="text-anchor: middle;">2,015</text></g><path class="domain" d="M0,6V0H680V6"></path></g><g class="y axis"><g class="tick" transform="translate(0,470)" style="opacity: 1;"><line x2="-6" y2="0"></line><text dy=".32em" x="-9" y="0" style="text-anchor: end;">0</text></g><g class="tick" transform="translate(0,433.84615384615387)" style="opacity: 1;"><line x2="-6" y2="0"></line><text dy=".32em" x="-9" y="0" style="text-anchor: end;">2</text></g><g class="tick" transform="translate(0,397.6923076923077)" style="opacity: 1;"><line x2="-6" y2="0"></line><text dy=".32em" x="-9" y="0" style="text-anchor: end;">4</text></g><g class="tick" transform="translate(0,361.5384615384615)" style="opacity: 1;"><line x2="-6" y2="0"></line><text dy=".32em" x="-9" y="0" style="text-anchor: end;">6</text></g><g class="tick" transform="translate(0,325.38461538461536)" style="opacity: 1;"><line x2="-6" y2="0"></line><text dy=".32em" x="-9" y="0" style="text-anchor: end;">8</text></g><g class="tick" transform="translate(0,289.2307692307692)" style="opacity: 1;"><line x2="-6" y2="0"></line><text dy=".32em" x="-9" y="0" style="text-anchor: end;">10</text></g><g class="tick" transform="translate(0,253.07692307692307)" style="opacity: 1;"><line x2="-6" y2="0"></line><text dy=".32em" x="-9" y="0" style="text-anchor: end;">12</text></g><g class="tick" transform="translate(0,216.92307692307693)" style="opacity: 1;"><line x2="-6" y2="0"></line><text dy=".32em" x="-9" y="0" style="text-anchor: end;">14</text></g><g class="tick" transform="translate(0,180.76923076923075)" style="opacity: 1;"><line x2="-6" y2="0"></line><text dy=".32em" x="-9" y="0" style="text-anchor: end;">16</text></g><g class="tick" transform="translate(0,144.6153846153846)" style="opacity: 1;"><line x2="-6" y2="0"></line><text dy=".32em" x="-9" y="0" style="text-anchor: end;">18</text></g><g class="tick" transform="translate(0,108.46153846153844)" style="opacity: 1;"><line x2="-6" y2="0"></line><text dy=".32em" x="-9" y="0" style="text-anchor: end;">20</text></g><g class="tick" transform="translate(0,72.3076923076923)" style="opacity: 1;"><line x2="-6" y2="0"></line><text dy=".32em" x="-9" y="0" style="text-anchor: end;">22</text></g><g class="tick" transform="translate(0,36.15384615384613)" style="opacity: 1;"><line x2="-6" y2="0"></line><text dy=".32em" x="-9" y="0" style="text-anchor: end;">24</text></g><g class="tick" transform="translate(0,0)" style="opacity: 1;"><line x2="-6" y2="0"></line><text dy=".32em" x="-9" y="0" style="text-anchor: end;">26</text></g><path class="domain" d="M-6,0H0V470H-6"></path></g></g></svg>
