<svg width="800" height="500" xmlns="http://www.w3.org/2000/svg"><g transform="translate(100,10)"><style type="text/css"> .axis path, .axis line { fill: none; stroke: #777; shape-rendering: crispEdges; } .axis text { font-family: 'Arial'; font-size: 13px; } .tick { stroke-dasharray: 1, 2; }</style><rect class="bar" x="0" y="470" width="34" height="0" fill="red"></rect><rect class="bar" x="34" y="464.2682926829268" width="34" height="5.731707317073187" fill="red"></rect><rect class="bar" x="68" y="445.640243902439" width="34" height="24.35975609756099" fill="red"></rect><rect class="bar" x="102" y="438.4756097560975" width="34" height="31.524390243902474" fill="red"></rect><rect class="bar" x="136" y="432.7439024390244" width="34" height="37.256097560975604" fill="red"></rect><rect class="bar" x="170" y="421.2804878048781" width="34" height="48.71951219512192" fill="red"></rect><rect class="bar" x="204" y="402.6524390243902" width="33.99999999999997" height="67.34756097560978" fill="red"></rect><rect class="bar" x="237.99999999999997" y="398.3536585365853" width="34.00000000000003" height="71.64634146341467" fill="red"></rect><rect class="bar" x="272" y="296.6158536585366" width="34" height="173.3841463414634" fill="red"></rect><rect class="bar" x="306" y="309.5121951219512" width="34" height="160.4878048780488" fill="red"></rect><rect class="bar" x="340" y="276.5548780487805" width="34.00000000000006" height="193.4451219512195" fill="red"></rect><rect class="bar" x="374.00000000000006" y="259.35975609756093" width="33.99999999999994" height="210.64024390243907" fill="red"></rect><rect class="bar" x="408" y="232.1341463414634" width="34" height="237.8658536585366" fill="red"></rect><rect class="bar" x="442" y="206.34146341463412" width="33.99999999999994" height="263.6585365853659" fill="red"></rect><rect class="bar" x="475.99999999999994" y="143.2926829268293" width="34.00000000000006" height="326.7073170731707" fill="red"></rect><rect class="bar" x="510" y="78.81097560975611" width="34" height="391.1890243902439" fill="red"></rect><rect class="bar" x="544" y="32.95731707317071" width="34" height="437.0426829268293" fill="red"></rect><rect class="bar" x="578" y="47.28658536585365" width="34" height="422.7134146341464" fill="red"></rect><rect class="bar" x="612" y="0" width="34" height="470" fill="red"></rect><rect class="bar" x="646" y="298.0487804878049" width="34" height="171.9512195121951" fill="red"></rect><text x="70" y="40" style="fill: black; font: 14px sans-serif;">BARABASI_A(1999)286:509</text><g class="x axis" transform="translate(0,470)"><g class="tick" transform="translate(34,0)" style="opacity: 1;"><line y2="6" x2="0"></line><text dy=".71em" y="9" x="0" style="text-anchor: middle;">2,000</text></g><g class="tick" transform="translate(102,0)" style="opacity: 1;"><line y2="6" x2="0"></line><text dy=".71em" y="9" x="0" style="text-anchor: middle;">2,002</text></g><g class="tick" transform="translate(170,0)" style="opacity: 1;"><line y2="6" x2="0"></line><text dy=".71em" y="9" x="0" style="text-anchor: middle;">2,004</text></g><g class="tick" transform="translate(237.99999999999997,0)" style="opacity: 1;"><line y2="6" x2="0"></line><text dy=".71em" y="9" x="0" style="text-anchor: middle;">2,006</text></g><g class="tick" transform="translate(306,0)" style="opacity: 1;"><line y2="6" x2="0"></line><text dy=".71em" y="9" x="0" style="text-anchor: middle;">2,008</text></g><g class="tick" transform="translate(374.00000000000006,0)" style="opacity: 1;"><line y2="6" x2="0"></line><text dy=".71em" y="9" x="0" style="text-anchor: middle;">2,010</text></g><g class="tick" transform="translate(442,0)" style="opacity: 1;"><line y2="6" x2="0"></line><text dy=".71em" y="9" x="0" style="text-anchor: middle;">2,012</text></g><g class="tick" transform="translate(510,0)" style="opacity: 1;"><line y2="6" x2="0"></line><text dy=".71em" y="9" x="0" style="text-anchor: middle;">2,014</text></g><g class="tick" transform="translate(578,0)" style="opacity: 1;"><line y2="6" x2="0"></line><text dy=".71em" y="9" x="0" style="text-anchor: middle;">2,016</text></g><g class="tick" transform="translate(646,0)" style="opacity: 1;"><line y2="6" x2="0"></line><text dy=".71em" y="9" x="0" style="text-anchor: middle;">2,018</text></g><path class="domain" d="M0,6V0H680V6"></path></g><g class="y axis"><g class="tick" transform="translate(0,470)" style="opacity: 1;"><line x2="-6" y2="0"></line><text dy=".32em" x="-9" y="0" style="text-anchor: end;">0</text></g><g class="tick" transform="translate(0,398.3536585365853)" style="opacity: 1;"><line x2="-6" y2="0"></line><text dy=".32em" x="-9" y="0" style="text-anchor: end;">50</text></g><g class="tick" transform="translate(0,326.7073170731707)" style="opacity: 1;"><line x2="-6" y2="0"></line><text dy=".32em" x="-9" y="0" style="text-anchor: end;">100</text></g><g class="tick" transform="translate(0,255.06097560975613)" style="opacity: 1;"><line x2="-6" y2="0"></line><text dy=".32em" x="-9" y="0" style="text-anchor: end;">150</text></g><g class="tick" transform="translate(0,183.41463414634146)" style="opacity: 1;"><line x2="-6" y2="0"></line><text dy=".32em" x="-9" y="0" style="text-anchor: end;">200</text></g><g class="tick" transform="translate(0,111.76829268292683)" style="opacity: 1;"><line x2="-6" y2="0"></line><text dy=".32em" x="-9" y="0" style="text-anchor: end;">250</text></g><g class="tick" transform="translate(0,40.12195121951218)" style="opacity: 1;"><line x2="-6" y2="0"></line><text dy=".32em" x="-9" y="0" style="text-anchor: end;">300</text></g><path class="domain" d="M-6,0H0V470H-6"></path></g></g></svg>
