<svg width="800" height="500" xmlns="http://www.w3.org/2000/svg"><g transform="translate(100,10)"><style type="text/css"> .axis path, .axis line { fill: none; stroke: #777; shape-rendering: crispEdges; } .axis text { font-family: 'Arial'; font-size: 13px; } .tick { stroke-dasharray: 1, 2; }</style><rect class="bar" x="0" y="470" width="56.666666666666664" height="0" fill="red"></rect><rect class="bar" x="56.666666666666664" y="435.66750629722924" width="56.666666666666664" height="34.33249370277076" fill="red"></rect><rect class="bar" x="113.33333333333333" y="387.1284634760705" width="56.66666666666667" height="82.87153652392948" fill="red"></rect><rect class="bar" x="170" y="314.911838790932" width="56.66666666666666" height="155.088161209068" fill="red"></rect><rect class="bar" x="226.66666666666666" y="268.7405541561713" width="56.666666666666714" height="201.2594458438287" fill="red"></rect><rect class="bar" x="283.33333333333337" y="211.91435768261965" width="56.66666666666663" height="258.08564231738035" fill="red"></rect><rect class="bar" x="340" y="142.06549118387912" width="56.666666666666686" height="327.9345088161209" fill="red"></rect><rect class="bar" x="396.6666666666667" y="112.46851385390431" width="56.66666666666663" height="357.5314861460957" fill="red"></rect><rect class="bar" x="453.3333333333333" y="69.84886649874055" width="56.666666666666686" height="400.15113350125944" fill="red"></rect><rect class="bar" x="510" y="37.88413098236774" width="56.66666666666674" height="432.11586901763224" fill="red"></rect><rect class="bar" x="566.6666666666667" y="0" width="56.666666666666515" height="470" fill="red"></rect><rect class="bar" x="623.3333333333333" y="292.4181360201511" width="56.66666666666674" height="177.5818639798489" fill="red"></rect><text x="70" y="40" style="fill: black; font: 14px sans-serif;">#BOYD_D(2007)13:210</text><g class="x axis" transform="translate(0,470)"><g class="tick" transform="translate(0,0)" style="opacity: 1;"><line y2="6" x2="0"></line><text dy=".71em" y="9" x="0" style="text-anchor: middle;">2,007</text></g><g class="tick" transform="translate(56.666666666666664,0)" style="opacity: 1;"><line y2="6" x2="0"></line><text dy=".71em" y="9" x="0" style="text-anchor: middle;">2,008</text></g><g class="tick" transform="translate(113.33333333333333,0)" style="opacity: 1;"><line y2="6" x2="0"></line><text dy=".71em" y="9" x="0" style="text-anchor: middle;">2,009</text></g><g class="tick" transform="translate(170,0)" style="opacity: 1;"><line y2="6" x2="0"></line><text dy=".71em" y="9" x="0" style="text-anchor: middle;">2,010</text></g><g class="tick" transform="translate(226.66666666666666,0)" style="opacity: 1;"><line y2="6" x2="0"></line><text dy=".71em" y="9" x="0" style="text-anchor: middle;">2,011</text></g><g class="tick" transform="translate(283.33333333333337,0)" style="opacity: 1;"><line y2="6" x2="0"></line><text dy=".71em" y="9" x="0" style="text-anchor: middle;">2,012</text></g><g class="tick" transform="translate(340,0)" style="opacity: 1;"><line y2="6" x2="0"></line><text dy=".71em" y="9" x="0" style="text-anchor: middle;">2,013</text></g><g class="tick" transform="translate(396.6666666666667,0)" style="opacity: 1;"><line y2="6" x2="0"></line><text dy=".71em" y="9" x="0" style="text-anchor: middle;">2,014</text></g><g class="tick" transform="translate(453.3333333333333,0)" style="opacity: 1;"><line y2="6" x2="0"></line><text dy=".71em" y="9" x="0" style="text-anchor: middle;">2,015</text></g><g class="tick" transform="translate(510,0)" style="opacity: 1;"><line y2="6" x2="0"></line><text dy=".71em" y="9" x="0" style="text-anchor: middle;">2,016</text></g><g class="tick" transform="translate(566.6666666666667,0)" style="opacity: 1;"><line y2="6" x2="0"></line><text dy=".71em" y="9" x="0" style="text-anchor: middle;">2,017</text></g><g class="tick" transform="translate(623.3333333333333,0)" style="opacity: 1;"><line y2="6" x2="0"></line><text dy=".71em" y="9" x="0" style="text-anchor: middle;">2,018</text></g><g class="tick" transform="translate(680,0)" style="opacity: 1;"><line y2="6" x2="0"></line><text dy=".71em" y="9" x="0" style="text-anchor: middle;">2,019</text></g><path class="domain" d="M0,6V0H680V6"></path></g><g class="y axis"><g class="tick" transform="translate(0,470)" style="opacity: 1;"><line x2="-6" y2="0"></line><text dy=".32em" x="-9" y="0" style="text-anchor: end;">0</text></g><g class="tick" transform="translate(0,410.8060453400504)" style="opacity: 1;"><line x2="-6" y2="0"></line><text dy=".32em" x="-9" y="0" style="text-anchor: end;">50</text></g><g class="tick" transform="translate(0,351.6120906801008)" style="opacity: 1;"><line x2="-6" y2="0"></line><text dy=".32em" x="-9" y="0" style="text-anchor: end;">100</text></g><g class="tick" transform="translate(0,292.4181360201511)" style="opacity: 1;"><line x2="-6" y2="0"></line><text dy=".32em" x="-9" y="0" style="text-anchor: end;">150</text></g><g class="tick" transform="translate(0,233.2241813602015)" style="opacity: 1;"><line x2="-6" y2="0"></line><text dy=".32em" x="-9" y="0" style="text-anchor: end;">200</text></g><g class="tick" transform="translate(0,174.03022670025192)" style="opacity: 1;"><line x2="-6" y2="0"></line><text dy=".32em" x="-9" y="0" style="text-anchor: end;">250</text></g><g class="tick" transform="translate(0,114.83627204030226)" style="opacity: 1;"><line x2="-6" y2="0"></line><text dy=".32em" x="-9" y="0" style="text-anchor: end;">300</text></g><g class="tick" transform="translate(0,55.642317380352665)" style="opacity: 1;"><line x2="-6" y2="0"></line><text dy=".32em" x="-9" y="0" style="text-anchor: end;">350</text></g><path class="domain" d="M-6,0H0V470H-6"></path></g></g></svg>
