<svg width="800" height="500" xmlns="http://www.w3.org/2000/svg"><g transform="translate(100,10)"><style type="text/css"> .axis path, .axis line { fill: none; stroke: #777; shape-rendering: crispEdges; } .axis text { font-family: 'Arial'; font-size: 13px; } .tick { stroke-dasharray: 1, 2; }</style><rect class="bar" x="0" y="461.8965517241379" width="25.185185185185183" height="8.103448275862092" fill="red"></rect><rect class="bar" x="25.185185185185183" y="457.8448275862069" width="25.185185185185183" height="12.155172413793082" fill="red"></rect><rect class="bar" x="50.37037037037037" y="453.7931034482759" width="25.18518518518519" height="16.206896551724128" fill="red"></rect><rect class="bar" x="75.55555555555556" y="451.76724137931035" width="50.37037037037037" height="18.23275862068965" fill="red"></rect><rect class="bar" x="125.92592592592592" y="425.4310344827586" width="25.18518518518519" height="44.568965517241395" fill="red"></rect><rect class="bar" x="151.11111111111111" y="429.48275862068965" width="25.185185185185162" height="40.51724137931035" fill="red"></rect><rect class="bar" x="176.29629629629628" y="433.5344827586207" width="25.18518518518519" height="36.4655172413793" fill="red"></rect><rect class="bar" x="201.48148148148147" y="415.301724137931" width="25.18518518518519" height="54.69827586206901" fill="red"></rect><rect class="bar" x="226.66666666666666" y="409.2241379310345" width="25.18518518518519" height="60.77586206896552" fill="red"></rect><rect class="bar" x="251.85185185185185" y="413.2758620689655" width="25.185185185185162" height="56.72413793103448" fill="red"></rect><rect class="bar" x="277.037037037037" y="403.1465517241379" width="25.18518518518522" height="66.85344827586209" fill="red"></rect><rect class="bar" x="302.22222222222223" y="386.9396551724138" width="25.185185185185162" height="83.06034482758622" fill="red"></rect><rect class="bar" x="327.4074074074074" y="372.7586206896552" width="25.185185185185162" height="97.24137931034483" fill="red"></rect><rect class="bar" x="352.59259259259255" y="328.1896551724138" width="25.18518518518522" height="141.81034482758622" fill="red"></rect><rect class="bar" x="377.77777777777777" y="305.9051724137931" width="25.185185185185162" height="164.09482758620692" fill="red"></rect><rect class="bar" x="402.96296296296293" y="237.0258620689655" width="25.18518518518522" height="232.9741379310345" fill="red"></rect><rect class="bar" x="428.14814814814815" y="216.76724137931032" width="25.185185185185162" height="253.23275862068968" fill="red"></rect><rect class="bar" x="453.3333333333333" y="153.9655172413793" width="25.18518518518522" height="316.0344827586207" fill="red"></rect><rect class="bar" x="478.51851851851853" y="79.00862068965519" width="25.185185185185162" height="390.9913793103448" fill="red"></rect><rect class="bar" x="503.7037037037037" y="117.5" width="25.18518518518522" height="352.5" fill="red"></rect><rect class="bar" x="528.8888888888889" y="66.85344827586208" width="25.185185185185105" height="403.1465517241379" fill="red"></rect><rect class="bar" x="554.074074074074" y="85.08620689655172" width="25.18518518518522" height="384.91379310344826" fill="red"></rect><rect class="bar" x="579.2592592592592" y="0" width="25.18518518518522" height="470" fill="red"></rect><rect class="bar" x="604.4444444444445" y="48.620689655172406" width="25.18518518518522" height="421.3793103448276" fill="red"></rect><rect class="bar" x="629.6296296296297" y="54.69827586206898" width="25.185185185185105" height="415.30172413793105" fill="red"></rect><rect class="bar" x="654.8148148148148" y="309.9568965517242" width="25.18518518518522" height="160.04310344827582" fill="red"></rect><text x="70" y="40" style="fill: black; font: 14px sans-serif;">BURT_R(1992):</text><g class="x axis" transform="translate(0,470)"><g class="tick" transform="translate(0,0)" style="opacity: 1;"><line y2="6" x2="0"></line><text dy=".71em" y="9" x="0" style="text-anchor: middle;">1,992</text></g><g class="tick" transform="translate(50.37037037037037,0)" style="opacity: 1;"><line y2="6" x2="0"></line><text dy=".71em" y="9" x="0" style="text-anchor: middle;">1,994</text></g><g class="tick" transform="translate(100.74074074074073,0)" style="opacity: 1;"><line y2="6" x2="0"></line><text dy=".71em" y="9" x="0" style="text-anchor: middle;">1,996</text></g><g class="tick" transform="translate(151.11111111111111,0)" style="opacity: 1;"><line y2="6" x2="0"></line><text dy=".71em" y="9" x="0" style="text-anchor: middle;">1,998</text></g><g class="tick" transform="translate(201.48148148148147,0)" style="opacity: 1;"><line y2="6" x2="0"></line><text dy=".71em" y="9" x="0" style="text-anchor: middle;">2,000</text></g><g class="tick" transform="translate(251.85185185185185,0)" style="opacity: 1;"><line y2="6" x2="0"></line><text dy=".71em" y="9" x="0" style="text-anchor: middle;">2,002</text></g><g class="tick" transform="translate(302.22222222222223,0)" style="opacity: 1;"><line y2="6" x2="0"></line><text dy=".71em" y="9" x="0" style="text-anchor: middle;">2,004</text></g><g class="tick" transform="translate(352.59259259259255,0)" style="opacity: 1;"><line y2="6" x2="0"></line><text dy=".71em" y="9" x="0" style="text-anchor: middle;">2,006</text></g><g class="tick" transform="translate(402.96296296296293,0)" style="opacity: 1;"><line y2="6" x2="0"></line><text dy=".71em" y="9" x="0" style="text-anchor: middle;">2,008</text></g><g class="tick" transform="translate(453.3333333333333,0)" style="opacity: 1;"><line y2="6" x2="0"></line><text dy=".71em" y="9" x="0" style="text-anchor: middle;">2,010</text></g><g class="tick" transform="translate(503.7037037037037,0)" style="opacity: 1;"><line y2="6" x2="0"></line><text dy=".71em" y="9" x="0" style="text-anchor: middle;">2,012</text></g><g class="tick" transform="translate(554.074074074074,0)" style="opacity: 1;"><line y2="6" x2="0"></line><text dy=".71em" y="9" x="0" style="text-anchor: middle;">2,014</text></g><g class="tick" transform="translate(604.4444444444445,0)" style="opacity: 1;"><line y2="6" x2="0"></line><text dy=".71em" y="9" x="0" style="text-anchor: middle;">2,016</text></g><g class="tick" transform="translate(654.8148148148148,0)" style="opacity: 1;"><line y2="6" x2="0"></line><text dy=".71em" y="9" x="0" style="text-anchor: middle;">2,018</text></g><path class="domain" d="M0,6V0H680V6"></path></g><g class="y axis"><g class="tick" transform="translate(0,470)" style="opacity: 1;"><line x2="-6" y2="0"></line><text dy=".32em" x="-9" y="0" style="text-anchor: end;">0</text></g><g class="tick" transform="translate(0,429.48275862068965)" style="opacity: 1;"><line x2="-6" y2="0"></line><text dy=".32em" x="-9" y="0" style="text-anchor: end;">20</text></g><g class="tick" transform="translate(0,388.9655172413793)" style="opacity: 1;"><line x2="-6" y2="0"></line><text dy=".32em" x="-9" y="0" style="text-anchor: end;">40</text></g><g class="tick" transform="translate(0,348.448275862069)" style="opacity: 1;"><line x2="-6" y2="0"></line><text dy=".32em" x="-9" y="0" style="text-anchor: end;">60</text></g><g class="tick" transform="translate(0,307.9310344827586)" style="opacity: 1;"><line x2="-6" y2="0"></line><text dy=".32em" x="-9" y="0" style="text-anchor: end;">80</text></g><g class="tick" transform="translate(0,267.4137931034483)" style="opacity: 1;"><line x2="-6" y2="0"></line><text dy=".32em" x="-9" y="0" style="text-anchor: end;">100</text></g><g class="tick" transform="translate(0,226.8965517241379)" style="opacity: 1;"><line x2="-6" y2="0"></line><text dy=".32em" x="-9" y="0" style="text-anchor: end;">120</text></g><g class="tick" transform="translate(0,186.3793103448276)" style="opacity: 1;"><line x2="-6" y2="0"></line><text dy=".32em" x="-9" y="0" style="text-anchor: end;">140</text></g><g class="tick" transform="translate(0,145.8620689655172)" style="opacity: 1;"><line x2="-6" y2="0"></line><text dy=".32em" x="-9" y="0" style="text-anchor: end;">160</text></g><g class="tick" transform="translate(0,105.3448275862069)" style="opacity: 1;"><line x2="-6" y2="0"></line><text dy=".32em" x="-9" y="0" style="text-anchor: end;">180</text></g><g class="tick" transform="translate(0,64.82758620689658)" style="opacity: 1;"><line x2="-6" y2="0"></line><text dy=".32em" x="-9" y="0" style="text-anchor: end;">200</text></g><g class="tick" transform="translate(0,24.310344827586203)" style="opacity: 1;"><line x2="-6" y2="0"></line><text dy=".32em" x="-9" y="0" style="text-anchor: end;">220</text></g><path class="domain" d="M-6,0H0V470H-6"></path></g></g></svg>
