<svg width="800" height="500" xmlns="http://www.w3.org/2000/svg"><g transform="translate(100,10)"><style type="text/css"> .axis path, .axis line { fill: none; stroke: #777; shape-rendering: crispEdges; } .axis text { font-family: 'Arial'; font-size: 13px; } .tick { stroke-dasharray: 1, 2; }</style><rect class="bar" x="0" y="268.57142857142856" width="29.565217391304348" height="201.42857142857144" fill="red"></rect><rect class="bar" x="29.565217391304348" y="470" width="59.1304347826087" height="0" fill="red"></rect><rect class="bar" x="88.69565217391305" y="402.8571428571429" width="59.1304347826087" height="67.14285714285711" fill="red"></rect><rect class="bar" x="147.82608695652175" y="470" width="29.565217391304344" height="0" fill="red"></rect><rect class="bar" x="177.3913043478261" y="335.7142857142857" width="29.565217391304344" height="134.28571428571428" fill="red"></rect><rect class="bar" x="206.95652173913044" y="402.8571428571429" width="29.565217391304344" height="67.14285714285711" fill="red"></rect><rect class="bar" x="236.52173913043478" y="470" width="88.69565217391303" height="0" fill="red"></rect><rect class="bar" x="325.2173913043478" y="402.8571428571429" width="59.13043478260869" height="67.14285714285711" fill="red"></rect><rect class="bar" x="384.3478260869565" y="335.7142857142857" width="29.565217391304373" height="134.28571428571428" fill="red"></rect><rect class="bar" x="413.9130434782609" y="0" width="29.565217391304373" height="470" fill="red"></rect><rect class="bar" x="443.47826086956525" y="335.7142857142857" width="29.565217391304316" height="134.28571428571428" fill="red"></rect><rect class="bar" x="473.04347826086956" y="201.42857142857144" width="29.565217391304316" height="268.57142857142856" fill="red"></rect><rect class="bar" x="502.6086956521739" y="268.57142857142856" width="118.26086956521738" height="201.42857142857144" fill="red"></rect><rect class="bar" x="620.8695652173913" y="335.7142857142857" width="29.565217391304373" height="134.28571428571428" fill="red"></rect><rect class="bar" x="650.4347826086956" y="402.8571428571429" width="29.565217391304373" height="67.14285714285711" fill="red"></rect><text x="70" y="40" style="fill: black; font: 14px sans-serif;">DOREIAN_P(1996)21:113</text><g class="x axis" transform="translate(0,470)"><g class="tick" transform="translate(0,0)" style="opacity: 1;"><line y2="6" x2="0"></line><text dy=".71em" y="9" x="0" style="text-anchor: middle;">1,996</text></g><g class="tick" transform="translate(59.130434782608695,0)" style="opacity: 1;"><line y2="6" x2="0"></line><text dy=".71em" y="9" x="0" style="text-anchor: middle;">1,998</text></g><g class="tick" transform="translate(118.26086956521739,0)" style="opacity: 1;"><line y2="6" x2="0"></line><text dy=".71em" y="9" x="0" style="text-anchor: middle;">2,000</text></g><g class="tick" transform="translate(177.3913043478261,0)" style="opacity: 1;"><line y2="6" x2="0"></line><text dy=".71em" y="9" x="0" style="text-anchor: middle;">2,002</text></g><g class="tick" transform="translate(236.52173913043478,0)" style="opacity: 1;"><line y2="6" x2="0"></line><text dy=".71em" y="9" x="0" style="text-anchor: middle;">2,004</text></g><g class="tick" transform="translate(295.6521739130435,0)" style="opacity: 1;"><line y2="6" x2="0"></line><text dy=".71em" y="9" x="0" style="text-anchor: middle;">2,006</text></g><g class="tick" transform="translate(354.7826086956522,0)" style="opacity: 1;"><line y2="6" x2="0"></line><text dy=".71em" y="9" x="0" style="text-anchor: middle;">2,008</text></g><g class="tick" transform="translate(413.9130434782609,0)" style="opacity: 1;"><line y2="6" x2="0"></line><text dy=".71em" y="9" x="0" style="text-anchor: middle;">2,010</text></g><g class="tick" transform="translate(473.04347826086956,0)" style="opacity: 1;"><line y2="6" x2="0"></line><text dy=".71em" y="9" x="0" style="text-anchor: middle;">2,012</text></g><g class="tick" transform="translate(532.1739130434783,0)" style="opacity: 1;"><line y2="6" x2="0"></line><text dy=".71em" y="9" x="0" style="text-anchor: middle;">2,014</text></g><g class="tick" transform="translate(591.304347826087,0)" style="opacity: 1;"><line y2="6" x2="0"></line><text dy=".71em" y="9" x="0" style="text-anchor: middle;">2,016</text></g><g class="tick" transform="translate(650.4347826086956,0)" style="opacity: 1;"><line y2="6" x2="0"></line><text dy=".71em" y="9" x="0" style="text-anchor: middle;">2,018</text></g><path class="domain" d="M0,6V0H680V6"></path></g><g class="y axis"><g class="tick" transform="translate(0,470)" style="opacity: 1;"><line x2="-6" y2="0"></line><text dy=".32em" x="-9" y="0" style="text-anchor: end;">0</text></g><g class="tick" transform="translate(0,402.8571428571429)" style="opacity: 1;"><line x2="-6" y2="0"></line><text dy=".32em" x="-9" y="0" style="text-anchor: end;">1</text></g><g class="tick" transform="translate(0,335.7142857142857)" style="opacity: 1;"><line x2="-6" y2="0"></line><text dy=".32em" x="-9" y="0" style="text-anchor: end;">2</text></g><g class="tick" transform="translate(0,268.57142857142856)" style="opacity: 1;"><line x2="-6" y2="0"></line><text dy=".32em" x="-9" y="0" style="text-anchor: end;">3</text></g><g class="tick" transform="translate(0,201.42857142857144)" style="opacity: 1;"><line x2="-6" y2="0"></line><text dy=".32em" x="-9" y="0" style="text-anchor: end;">4</text></g><g class="tick" transform="translate(0,134.28571428571428)" style="opacity: 1;"><line x2="-6" y2="0"></line><text dy=".32em" x="-9" y="0" style="text-anchor: end;">5</text></g><g class="tick" transform="translate(0,67.14285714285717)" style="opacity: 1;"><line x2="-6" y2="0"></line><text dy=".32em" x="-9" y="0" style="text-anchor: end;">6</text></g><g class="tick" transform="translate(0,0)" style="opacity: 1;"><line x2="-6" y2="0"></line><text dy=".32em" x="-9" y="0" style="text-anchor: end;">7</text></g><path class="domain" d="M-6,0H0V470H-6"></path></g></g></svg>
