<svg width="800" height="500" xmlns="http://www.w3.org/2000/svg"><g transform="translate(100,10)"><style type="text/css"> .axis path, .axis line { fill: none; stroke: #777; shape-rendering: crispEdges; } .axis text { font-family: 'Arial'; font-size: 13px; } .tick { stroke-dasharray: 1, 2; }</style><rect class="bar" x="0" y="470" width="17" height="0" fill="red"></rect><rect class="bar" x="17" y="465.9130434782609" width="17" height="4.0869565217391255" fill="red"></rect><rect class="bar" x="34" y="459.1014492753623" width="17" height="10.898550724637687" fill="red"></rect><rect class="bar" x="51" y="465.9130434782609" width="17" height="4.0869565217391255" fill="red"></rect><rect class="bar" x="68" y="463.1884057971015" width="34" height="6.811594202898505" fill="red"></rect><rect class="bar" x="102" y="465.9130434782609" width="16.999999999999986" height="4.0869565217391255" fill="red"></rect><rect class="bar" x="118.99999999999999" y="463.1884057971015" width="17.000000000000014" height="6.811594202898505" fill="red"></rect><rect class="bar" x="136" y="459.1014492753623" width="17" height="10.898550724637687" fill="red"></rect><rect class="bar" x="153" y="460.46376811594206" width="17" height="9.53623188405794" fill="red"></rect><rect class="bar" x="170" y="461.82608695652175" width="17.00000000000003" height="8.173913043478251" fill="red"></rect><rect class="bar" x="187.00000000000003" y="463.1884057971015" width="16.99999999999997" height="6.811594202898505" fill="red"></rect><rect class="bar" x="204" y="457.7391304347826" width="17" height="12.260869565217376" fill="red"></rect><rect class="bar" x="221" y="463.1884057971015" width="16.99999999999997" height="6.811594202898505" fill="red"></rect><rect class="bar" x="237.99999999999997" y="457.7391304347826" width="17.00000000000003" height="12.260869565217376" fill="red"></rect><rect class="bar" x="255" y="453.65217391304344" width="17" height="16.34782608695656" fill="red"></rect><rect class="bar" x="272" y="461.82608695652175" width="17" height="8.173913043478251" fill="red"></rect><rect class="bar" x="289" y="460.46376811594206" width="17" height="9.53623188405794" fill="red"></rect><rect class="bar" x="306" y="445.4782608695652" width="17" height="24.52173913043481" fill="red"></rect><rect class="bar" x="323" y="442.75362318840575" width="17" height="27.246376811594246" fill="red"></rect><rect class="bar" x="340" y="438.6666666666667" width="17" height="31.333333333333314" fill="red"></rect><rect class="bar" x="357" y="459.1014492753623" width="17.000000000000057" height="10.898550724637687" fill="red"></rect><rect class="bar" x="374.00000000000006" y="445.4782608695652" width="16.999999999999886" height="24.52173913043481" fill="red"></rect><rect class="bar" x="390.99999999999994" y="450.92753623188406" width="17.000000000000057" height="19.072463768115938" fill="red"></rect><rect class="bar" x="408" y="441.3913043478261" width="17" height="28.60869565217388" fill="red"></rect><rect class="bar" x="425" y="446.84057971014494" width="34.00000000000006" height="23.159420289855063" fill="red"></rect><rect class="bar" x="459.00000000000006" y="422.3188405797101" width="16.999999999999886" height="47.68115942028987" fill="red"></rect><rect class="bar" x="475.99999999999994" y="362.37681159420293" width="17.000000000000057" height="107.62318840579707" fill="red"></rect><rect class="bar" x="493" y="332.40579710144925" width="17" height="137.59420289855075" fill="red"></rect><rect class="bar" x="510" y="326.95652173913044" width="17" height="143.04347826086956" fill="red"></rect><rect class="bar" x="527" y="311.9710144927536" width="17" height="158.02898550724638" fill="red"></rect><rect class="bar" x="544" y="265.6521739130435" width="17" height="204.3478260869565" fill="red"></rect><rect class="bar" x="561" y="253.3913043478261" width="17" height="216.6086956521739" fill="red"></rect><rect class="bar" x="578" y="204.34782608695653" width="17" height="265.6521739130435" fill="red"></rect><rect class="bar" x="595" y="111.71014492753625" width="17" height="358.28985507246375" fill="red"></rect><rect class="bar" x="612" y="55.855072463768124" width="17" height="414.1449275362319" fill="red"></rect><rect class="bar" x="629" y="0" width="17" height="470" fill="red"></rect><rect class="bar" x="646" y="27.24637681159422" width="17" height="442.75362318840575" fill="red"></rect><rect class="bar" x="663" y="303.7971014492754" width="17" height="166.20289855072463" fill="red"></rect><text x="70" y="40" style="fill: black; font: 14px sans-serif;">FREEMAN_L(1979)1:215</text><g class="x axis" transform="translate(0,470)"><g class="tick" transform="translate(17,0)" style="opacity: 1;"><line y2="6" x2="0"></line><text dy=".71em" y="9" x="0" style="text-anchor: middle;">1,980</text></g><g class="tick" transform="translate(102,0)" style="opacity: 1;"><line y2="6" x2="0"></line><text dy=".71em" y="9" x="0" style="text-anchor: middle;">1,985</text></g><g class="tick" transform="translate(187.00000000000003,0)" style="opacity: 1;"><line y2="6" x2="0"></line><text dy=".71em" y="9" x="0" style="text-anchor: middle;">1,990</text></g><g class="tick" transform="translate(272,0)" style="opacity: 1;"><line y2="6" x2="0"></line><text dy=".71em" y="9" x="0" style="text-anchor: middle;">1,995</text></g><g class="tick" transform="translate(357,0)" style="opacity: 1;"><line y2="6" x2="0"></line><text dy=".71em" y="9" x="0" style="text-anchor: middle;">2,000</text></g><g class="tick" transform="translate(442,0)" style="opacity: 1;"><line y2="6" x2="0"></line><text dy=".71em" y="9" x="0" style="text-anchor: middle;">2,005</text></g><g class="tick" transform="translate(527,0)" style="opacity: 1;"><line y2="6" x2="0"></line><text dy=".71em" y="9" x="0" style="text-anchor: middle;">2,010</text></g><g class="tick" transform="translate(612,0)" style="opacity: 1;"><line y2="6" x2="0"></line><text dy=".71em" y="9" x="0" style="text-anchor: middle;">2,015</text></g><path class="domain" d="M0,6V0H680V6"></path></g><g class="y axis"><g class="tick" transform="translate(0,470)" style="opacity: 1;"><line x2="-6" y2="0"></line><text dy=".32em" x="-9" y="0" style="text-anchor: end;">0</text></g><g class="tick" transform="translate(0,401.8840579710145)" style="opacity: 1;"><line x2="-6" y2="0"></line><text dy=".32em" x="-9" y="0" style="text-anchor: end;">50</text></g><g class="tick" transform="translate(0,333.768115942029)" style="opacity: 1;"><line x2="-6" y2="0"></line><text dy=".32em" x="-9" y="0" style="text-anchor: end;">100</text></g><g class="tick" transform="translate(0,265.6521739130435)" style="opacity: 1;"><line x2="-6" y2="0"></line><text dy=".32em" x="-9" y="0" style="text-anchor: end;">150</text></g><g class="tick" transform="translate(0,197.53623188405797)" style="opacity: 1;"><line x2="-6" y2="0"></line><text dy=".32em" x="-9" y="0" style="text-anchor: end;">200</text></g><g class="tick" transform="translate(0,129.42028985507247)" style="opacity: 1;"><line x2="-6" y2="0"></line><text dy=".32em" x="-9" y="0" style="text-anchor: end;">250</text></g><g class="tick" transform="translate(0,61.30434782608697)" style="opacity: 1;"><line x2="-6" y2="0"></line><text dy=".32em" x="-9" y="0" style="text-anchor: end;">300</text></g><path class="domain" d="M-6,0H0V470H-6"></path></g></g></svg>
