<svg width="800" height="500" xmlns="http://www.w3.org/2000/svg"><g transform="translate(100,10)"><style type="text/css"> .axis path, .axis line { fill: none; stroke: #777; shape-rendering: crispEdges; } .axis text { font-family: 'Arial'; font-size: 13px; } .tick { stroke-dasharray: 1, 2; }</style><rect class="bar" x="0" y="468.9848812095032" width="14.782608695652174" height="1.0151187904967856" fill="red"></rect><rect class="bar" x="14.782608695652174" y="470" width="14.782608695652174" height="0" fill="red"></rect><rect class="bar" x="29.565217391304348" y="468.9848812095032" width="14.782608695652176" height="1.0151187904967856" fill="red"></rect><rect class="bar" x="44.34782608695652" y="465.9395248380129" width="14.782608695652172" height="4.060475161987085" fill="red"></rect><rect class="bar" x="59.130434782608695" y="468.9848812095032" width="14.78260869565218" height="1.0151187904967856" fill="red"></rect><rect class="bar" x="73.91304347826087" y="462.8941684665227" width="29.565217391304344" height="7.105831533477328" fill="red"></rect><rect class="bar" x="103.47826086956522" y="460.86393088552916" width="14.782608695652172" height="9.136069114470843" fill="red"></rect><rect class="bar" x="118.26086956521739" y="458.83369330453564" width="14.782608695652172" height="11.166306695464357" fill="red"></rect><rect class="bar" x="133.04347826086956" y="462.8941684665227" width="14.782608695652186" height="7.105831533477328" fill="red"></rect><rect class="bar" x="147.82608695652175" y="456.8034557235421" width="14.782608695652158" height="13.196544276457928" fill="red"></rect><rect class="bar" x="162.6086956521739" y="463.90928725701946" width="14.782608695652186" height="6.090712742980543" fill="red"></rect><rect class="bar" x="177.3913043478261" y="457.81857451403886" width="14.782608695652158" height="12.181425485961142" fill="red"></rect><rect class="bar" x="192.17391304347825" y="459.8488120950324" width="14.782608695652186" height="10.151187904967628" fill="red"></rect><rect class="bar" x="206.95652173913044" y="463.90928725701946" width="14.782608695652186" height="6.090712742980543" fill="red"></rect><rect class="bar" x="221.73913043478262" y="461.87904967602594" width="14.782608695652158" height="8.120950323974057" fill="red"></rect><rect class="bar" x="236.52173913043478" y="464.92440604751624" width="14.782608695652158" height="5.075593952483757" fill="red"></rect><rect class="bar" x="251.30434782608694" y="456.8034557235421" width="14.782608695652186" height="13.196544276457928" fill="red"></rect><rect class="bar" x="266.0869565217391" y="458.83369330453564" width="14.782608695652186" height="11.166306695464357" fill="red"></rect><rect class="bar" x="280.8695652173913" y="453.75809935205183" width="14.782608695652186" height="16.24190064794817" fill="red"></rect><rect class="bar" x="295.6521739130435" y="457.81857451403886" width="14.78260869565213" height="12.181425485961142" fill="red"></rect><rect class="bar" x="310.4347826086956" y="454.7732181425486" width="14.782608695652186" height="15.226781857451385" fill="red"></rect><rect class="bar" x="325.2173913043478" y="451.7278617710583" width="14.782608695652186" height="18.272138228941685" fill="red"></rect><rect class="bar" x="340" y="452.7429805615551" width="14.782608695652186" height="17.2570194384449" fill="red"></rect><rect class="bar" x="354.7826086956522" y="441.5766738660907" width="14.78260869565213" height="28.423326133909313" fill="red"></rect><rect class="bar" x="369.5652173913043" y="442.5917926565875" width="14.782608695652186" height="27.408207343412528" fill="red"></rect><rect class="bar" x="384.3478260869565" y="438.5313174946004" width="14.782608695652243" height="31.468682505399613" fill="red"></rect><rect class="bar" x="399.13043478260875" y="432.44060475161984" width="14.78260869565213" height="37.559395248380156" fill="red"></rect><rect class="bar" x="413.9130434782609" y="430.4103671706264" width="29.565217391304373" height="39.58963282937361" fill="red"></rect><rect class="bar" x="443.47826086956525" y="419.244060475162" width="14.78260869565213" height="50.75593952483803" fill="red"></rect><rect class="bar" x="458.2608695652174" y="412.1382289416847" width="14.782608695652186" height="57.8617710583153" fill="red"></rect><rect class="bar" x="473.04347826086956" y="389.80561555075593" width="14.78260869565213" height="80.19438444924407" fill="red"></rect><rect class="bar" x="487.8260869565217" y="378.6393088552916" width="14.782608695652186" height="91.36069114470843" fill="red"></rect><rect class="bar" x="502.6086956521739" y="314.6868250539957" width="14.782608695652243" height="155.31317494600432" fill="red"></rect><rect class="bar" x="517.3913043478261" y="289.30885529157666" width="14.78260869565213" height="180.69114470842334" fill="red"></rect><rect class="bar" x="532.1739130434783" y="245.65874730021596" width="14.782608695652243" height="224.34125269978404" fill="red"></rect><rect class="bar" x="546.9565217391305" y="202.0086393088553" width="14.78260869565213" height="267.9913606911447" fill="red"></rect><rect class="bar" x="561.7391304347826" y="166.47948164146868" width="14.78260869565213" height="303.5205183585313" fill="red"></rect><rect class="bar" x="576.5217391304348" y="127.90496760259181" width="14.782608695652243" height="342.0950323974082" fill="red"></rect><rect class="bar" x="591.304347826087" y="90.34557235421167" width="14.78260869565213" height="379.65442764578836" fill="red"></rect><rect class="bar" x="606.0869565217391" y="49.740820734341234" width="14.78260869565213" height="420.25917926565876" fill="red"></rect><rect class="bar" x="620.8695652173913" y="1.0151187904967662" width="14.782608695652243" height="468.9848812095032" fill="red"></rect><rect class="bar" x="635.6521739130435" y="10.15118790496761" width="14.78260869565213" height="459.8488120950324" fill="red"></rect><rect class="bar" x="650.4347826086956" y="0" width="14.782608695652243" height="470" fill="red"></rect><rect class="bar" x="665.2173913043479" y="301.4902807775378" width="14.78260869565213" height="168.5097192224622" fill="red"></rect><text x="70" y="40" style="fill: black; font: 14px sans-serif;">#GRANOVET_M(1973)78:1360</text><g class="x axis" transform="translate(0,470)"><g class="tick" transform="translate(29.565217391304348,0)" style="opacity: 1;"><line y2="6" x2="0"></line><text dy=".71em" y="9" x="0" style="text-anchor: middle;">1,975</text></g><g class="tick" transform="translate(103.47826086956522,0)" style="opacity: 1;"><line y2="6" x2="0"></line><text dy=".71em" y="9" x="0" style="text-anchor: middle;">1,980</text></g><g class="tick" transform="translate(177.3913043478261,0)" style="opacity: 1;"><line y2="6" x2="0"></line><text dy=".71em" y="9" x="0" style="text-anchor: middle;">1,985</text></g><g class="tick" transform="translate(251.30434782608694,0)" style="opacity: 1;"><line y2="6" x2="0"></line><text dy=".71em" y="9" x="0" style="text-anchor: middle;">1,990</text></g><g class="tick" transform="translate(325.2173913043478,0)" style="opacity: 1;"><line y2="6" x2="0"></line><text dy=".71em" y="9" x="0" style="text-anchor: middle;">1,995</text></g><g class="tick" transform="translate(399.13043478260875,0)" style="opacity: 1;"><line y2="6" x2="0"></line><text dy=".71em" y="9" x="0" style="text-anchor: middle;">2,000</text></g><g class="tick" transform="translate(473.04347826086956,0)" style="opacity: 1;"><line y2="6" x2="0"></line><text dy=".71em" y="9" x="0" style="text-anchor: middle;">2,005</text></g><g class="tick" transform="translate(546.9565217391305,0)" style="opacity: 1;"><line y2="6" x2="0"></line><text dy=".71em" y="9" x="0" style="text-anchor: middle;">2,010</text></g><g class="tick" transform="translate(620.8695652173913,0)" style="opacity: 1;"><line y2="6" x2="0"></line><text dy=".71em" y="9" x="0" style="text-anchor: middle;">2,015</text></g><path class="domain" d="M0,6V0H680V6"></path></g><g class="y axis"><g class="tick" transform="translate(0,470)" style="opacity: 1;"><line x2="-6" y2="0"></line><text dy=".32em" x="-9" y="0" style="text-anchor: end;">0</text></g><g class="tick" transform="translate(0,419.244060475162)" style="opacity: 1;"><line x2="-6" y2="0"></line><text dy=".32em" x="-9" y="0" style="text-anchor: end;">50</text></g><g class="tick" transform="translate(0,368.488120950324)" style="opacity: 1;"><line x2="-6" y2="0"></line><text dy=".32em" x="-9" y="0" style="text-anchor: end;">100</text></g><g class="tick" transform="translate(0,317.732181425486)" style="opacity: 1;"><line x2="-6" y2="0"></line><text dy=".32em" x="-9" y="0" style="text-anchor: end;">150</text></g><g class="tick" transform="translate(0,266.97624190064795)" style="opacity: 1;"><line x2="-6" y2="0"></line><text dy=".32em" x="-9" y="0" style="text-anchor: end;">200</text></g><g class="tick" transform="translate(0,216.22030237580995)" style="opacity: 1;"><line x2="-6" y2="0"></line><text dy=".32em" x="-9" y="0" style="text-anchor: end;">250</text></g><g class="tick" transform="translate(0,165.4643628509719)" style="opacity: 1;"><line x2="-6" y2="0"></line><text dy=".32em" x="-9" y="0" style="text-anchor: end;">300</text></g><g class="tick" transform="translate(0,114.70842332613391)" style="opacity: 1;"><line x2="-6" y2="0"></line><text dy=".32em" x="-9" y="0" style="text-anchor: end;">350</text></g><g class="tick" transform="translate(0,63.952483801295905)" style="opacity: 1;"><line x2="-6" y2="0"></line><text dy=".32em" x="-9" y="0" style="text-anchor: end;">400</text></g><g class="tick" transform="translate(0,13.196544276457908)" style="opacity: 1;"><line x2="-6" y2="0"></line><text dy=".32em" x="-9" y="0" style="text-anchor: end;">450</text></g><path class="domain" d="M-6,0H0V470H-6"></path></g></g></svg>
