<svg width="800" height="500" xmlns="http://www.w3.org/2000/svg"><g transform="translate(100,10)"><style type="text/css"> .axis path, .axis line { fill: none; stroke: #777; shape-rendering: crispEdges; } .axis text { font-family: 'Arial'; font-size: 13px; } .tick { stroke-dasharray: 1, 2; }</style><rect class="bar" x="0" y="470" width="93.15068493150685" height="0" fill="red"></rect><rect class="bar" x="93.15068493150685" y="457.63157894736844" width="9.31506849315069" height="12.368421052631561" fill="red"></rect><rect class="bar" x="102.46575342465754" y="470" width="121.09589041095889" height="0" fill="red"></rect><rect class="bar" x="223.56164383561642" y="457.63157894736844" width="18.63013698630138" height="12.368421052631561" fill="red"></rect><rect class="bar" x="242.1917808219178" y="470" width="46.57534246575341" height="0" fill="red"></rect><rect class="bar" x="288.7671232876712" y="457.63157894736844" width="9.315068493150704" height="12.368421052631561" fill="red"></rect><rect class="bar" x="298.0821917808219" y="470" width="18.630136986301352" height="0" fill="red"></rect><rect class="bar" x="316.71232876712327" y="432.89473684210526" width="9.315068493150704" height="37.10526315789474" fill="red"></rect><rect class="bar" x="326.027397260274" y="457.63157894736844" width="18.63013698630141" height="12.368421052631561" fill="red"></rect><rect class="bar" x="344.6575342465754" y="432.89473684210526" width="9.315068493150648" height="37.10526315789474" fill="red"></rect><rect class="bar" x="353.972602739726" y="457.63157894736844" width="18.630136986301352" height="12.368421052631561" fill="red"></rect><rect class="bar" x="372.6027397260274" y="445.2631578947369" width="9.315068493150704" height="24.736842105263122" fill="red"></rect><rect class="bar" x="381.9178082191781" y="470" width="37.26027397260276" height="0" fill="red"></rect><rect class="bar" x="419.17808219178085" y="457.63157894736844" width="9.315068493150648" height="12.368421052631561" fill="red"></rect><rect class="bar" x="428.4931506849315" y="470" width="9.315068493150704" height="0" fill="red"></rect><rect class="bar" x="437.8082191780822" y="457.63157894736844" width="18.630136986301352" height="12.368421052631561" fill="red"></rect><rect class="bar" x="456.43835616438355" y="470" width="9.315068493150648" height="0" fill="red"></rect><rect class="bar" x="465.7534246575342" y="432.89473684210526" width="9.315068493150761" height="37.10526315789474" fill="red"></rect><rect class="bar" x="475.06849315068496" y="457.63157894736844" width="9.315068493150648" height="12.368421052631561" fill="red"></rect><rect class="bar" x="484.3835616438356" y="470" width="9.315068493150704" height="0" fill="red"></rect><rect class="bar" x="493.6986301369863" y="420.5263157894737" width="9.315068493150648" height="49.4736842105263" fill="red"></rect><rect class="bar" x="503.01369863013696" y="445.2631578947369" width="9.315068493150704" height="24.736842105263122" fill="red"></rect><rect class="bar" x="512.3287671232877" y="420.5263157894737" width="9.315068493150648" height="49.4736842105263" fill="red"></rect><rect class="bar" x="521.6438356164383" y="457.63157894736844" width="9.315068493150761" height="12.368421052631561" fill="red"></rect><rect class="bar" x="530.9589041095891" y="445.2631578947369" width="9.315068493150648" height="24.736842105263122" fill="red"></rect><rect class="bar" x="540.2739726027397" y="457.63157894736844" width="9.315068493150648" height="12.368421052631561" fill="red"></rect><rect class="bar" x="549.5890410958904" y="445.2631578947369" width="9.315068493150648" height="24.736842105263122" fill="red"></rect><rect class="bar" x="558.904109589041" y="420.5263157894737" width="9.315068493150761" height="49.4736842105263" fill="red"></rect><rect class="bar" x="568.2191780821918" y="371.0526315789474" width="9.315068493150648" height="98.9473684210526" fill="red"></rect><rect class="bar" x="577.5342465753424" y="358.6842105263158" width="9.315068493150761" height="111.31578947368422" fill="red"></rect><rect class="bar" x="586.8493150684932" y="346.3157894736842" width="9.315068493150648" height="123.68421052631578" fill="red"></rect><rect class="bar" x="596.1643835616438" y="395.7894736842105" width="9.315068493150648" height="74.21052631578948" fill="red"></rect><rect class="bar" x="605.4794520547945" y="346.3157894736842" width="9.315068493150648" height="123.68421052631578" fill="red"></rect><rect class="bar" x="614.7945205479451" y="185.5263157894737" width="9.315068493150761" height="284.4736842105263" fill="red"></rect><rect class="bar" x="624.1095890410959" y="111.31578947368419" width="9.315068493150648" height="358.68421052631584" fill="red"></rect><rect class="bar" x="633.4246575342465" y="37.10526315789475" width="18.63013698630141" height="432.89473684210526" fill="red"></rect><rect class="bar" x="652.054794520548" y="0" width="9.315068493150648" height="470" fill="red"></rect><rect class="bar" x="661.3698630136986" y="24.736842105263182" width="9.315068493150648" height="445.2631578947368" fill="red"></rect><rect class="bar" x="670.6849315068492" y="395.7894736842105" width="9.315068493150761" height="74.21052631578948" fill="red"></rect><text x="70" y="40" style="fill: black; font: 14px sans-serif;">HEIDER_F(1946)21:107</text><g class="x axis" transform="translate(0,470)"><g class="tick" transform="translate(37.26027397260274,0)" style="opacity: 1;"><line y2="6" x2="0"></line><text dy=".71em" y="9" x="0" style="text-anchor: middle;">1,950</text></g><g class="tick" transform="translate(130.41095890410958,0)" style="opacity: 1;"><line y2="6" x2="0"></line><text dy=".71em" y="9" x="0" style="text-anchor: middle;">1,960</text></g><g class="tick" transform="translate(223.56164383561642,0)" style="opacity: 1;"><line y2="6" x2="0"></line><text dy=".71em" y="9" x="0" style="text-anchor: middle;">1,970</text></g><g class="tick" transform="translate(316.71232876712327,0)" style="opacity: 1;"><line y2="6" x2="0"></line><text dy=".71em" y="9" x="0" style="text-anchor: middle;">1,980</text></g><g class="tick" transform="translate(409.86301369863014,0)" style="opacity: 1;"><line y2="6" x2="0"></line><text dy=".71em" y="9" x="0" style="text-anchor: middle;">1,990</text></g><g class="tick" transform="translate(503.01369863013696,0)" style="opacity: 1;"><line y2="6" x2="0"></line><text dy=".71em" y="9" x="0" style="text-anchor: middle;">2,000</text></g><g class="tick" transform="translate(596.1643835616438,0)" style="opacity: 1;"><line y2="6" x2="0"></line><text dy=".71em" y="9" x="0" style="text-anchor: middle;">2,010</text></g><path class="domain" d="M0,6V0H680V6"></path></g><g class="y axis"><g class="tick" transform="translate(0,470)" style="opacity: 1;"><line x2="-6" y2="0"></line><text dy=".32em" x="-9" y="0" style="text-anchor: end;">0</text></g><g class="tick" transform="translate(0,408.15789473684214)" style="opacity: 1;"><line x2="-6" y2="0"></line><text dy=".32em" x="-9" y="0" style="text-anchor: end;">5</text></g><g class="tick" transform="translate(0,346.3157894736842)" style="opacity: 1;"><line x2="-6" y2="0"></line><text dy=".32em" x="-9" y="0" style="text-anchor: end;">10</text></g><g class="tick" transform="translate(0,284.4736842105263)" style="opacity: 1;"><line x2="-6" y2="0"></line><text dy=".32em" x="-9" y="0" style="text-anchor: end;">15</text></g><g class="tick" transform="translate(0,222.63157894736844)" style="opacity: 1;"><line x2="-6" y2="0"></line><text dy=".32em" x="-9" y="0" style="text-anchor: end;">20</text></g><g class="tick" transform="translate(0,160.7894736842105)" style="opacity: 1;"><line x2="-6" y2="0"></line><text dy=".32em" x="-9" y="0" style="text-anchor: end;">25</text></g><g class="tick" transform="translate(0,98.94736842105263)" style="opacity: 1;"><line x2="-6" y2="0"></line><text dy=".32em" x="-9" y="0" style="text-anchor: end;">30</text></g><g class="tick" transform="translate(0,37.10526315789475)" style="opacity: 1;"><line x2="-6" y2="0"></line><text dy=".32em" x="-9" y="0" style="text-anchor: end;">35</text></g><path class="domain" d="M-6,0H0V470H-6"></path></g></g></svg>
