<svg width="800" height="500" xmlns="http://www.w3.org/2000/svg"><g transform="translate(100,10)"><style type="text/css"> .axis path, .axis line { fill: none; stroke: #777; shape-rendering: crispEdges; } .axis text { font-family: 'Arial'; font-size: 13px; } .tick { stroke-dasharray: 1, 2; }</style><rect class="bar" x="0" y="453.7931034482759" width="17.894736842105264" height="16.206896551724128" fill="red"></rect><rect class="bar" x="17.894736842105264" y="437.5862068965517" width="35.78947368421052" height="32.41379310344831" fill="red"></rect><rect class="bar" x="53.68421052631579" y="421.3793103448276" width="17.894736842105267" height="48.620689655172384" fill="red"></rect><rect class="bar" x="71.57894736842105" y="388.9655172413793" width="17.89473684210526" height="81.0344827586207" fill="red"></rect><rect class="bar" x="89.47368421052632" y="437.5862068965517" width="17.89473684210526" height="32.41379310344831" fill="red"></rect><rect class="bar" x="107.36842105263158" y="405.17241379310343" width="17.89473684210526" height="64.82758620689657" fill="red"></rect><rect class="bar" x="125.26315789473684" y="453.7931034482759" width="17.894736842105274" height="16.206896551724128" fill="red"></rect><rect class="bar" x="143.1578947368421" y="437.5862068965517" width="17.89473684210526" height="32.41379310344831" fill="red"></rect><rect class="bar" x="161.05263157894737" y="405.17241379310343" width="35.78947368421052" height="64.82758620689657" fill="red"></rect><rect class="bar" x="196.8421052631579" y="437.5862068965517" width="53.68421052631578" height="32.41379310344831" fill="red"></rect><rect class="bar" x="250.52631578947367" y="421.3793103448276" width="17.89473684210529" height="48.620689655172384" fill="red"></rect><rect class="bar" x="268.42105263157896" y="340.3448275862069" width="17.89473684210526" height="129.65517241379308" fill="red"></rect><rect class="bar" x="286.3157894736842" y="421.3793103448276" width="17.89473684210526" height="48.620689655172384" fill="red"></rect><rect class="bar" x="304.2105263157895" y="388.9655172413793" width="17.89473684210526" height="81.0344827586207" fill="red"></rect><rect class="bar" x="322.10526315789474" y="372.7586206896552" width="17.89473684210526" height="97.24137931034483" fill="red"></rect><rect class="bar" x="340" y="421.3793103448276" width="17.89473684210526" height="48.620689655172384" fill="red"></rect><rect class="bar" x="357.89473684210526" y="388.9655172413793" width="53.68421052631578" height="81.0344827586207" fill="red"></rect><rect class="bar" x="411.57894736842104" y="324.1379310344828" width="17.89473684210526" height="145.8620689655172" fill="red"></rect><rect class="bar" x="429.4736842105263" y="405.17241379310343" width="17.894736842105317" height="64.82758620689657" fill="red"></rect><rect class="bar" x="447.3684210526316" y="372.7586206896552" width="17.89473684210526" height="97.24137931034483" fill="red"></rect><rect class="bar" x="465.2631578947369" y="259.3103448275862" width="17.894736842105203" height="210.68965517241378" fill="red"></rect><rect class="bar" x="483.1578947368421" y="356.551724137931" width="17.89473684210526" height="113.44827586206901" fill="red"></rect><rect class="bar" x="501.05263157894734" y="291.7241379310345" width="17.894736842105374" height="178.27586206896552" fill="red"></rect><rect class="bar" x="518.9473684210527" y="307.9310344827586" width="17.894736842105203" height="162.0689655172414" fill="red"></rect><rect class="bar" x="536.8421052631579" y="226.8965517241379" width="17.894736842105203" height="243.1034482758621" fill="red"></rect><rect class="bar" x="554.7368421052631" y="275.51724137931035" width="17.894736842105317" height="194.48275862068965" fill="red"></rect><rect class="bar" x="572.6315789473684" y="113.44827586206898" width="17.894736842105317" height="356.55172413793105" fill="red"></rect><rect class="bar" x="590.5263157894738" y="259.3103448275862" width="17.894736842105203" height="210.68965517241378" fill="red"></rect><rect class="bar" x="608.421052631579" y="64.82758620689658" width="17.894736842105203" height="405.17241379310343" fill="red"></rect><rect class="bar" x="626.3157894736842" y="16.206896551724117" width="17.894736842105317" height="453.7931034482759" fill="red"></rect><rect class="bar" x="644.2105263157895" y="0" width="17.894736842105317" height="470" fill="red"></rect><rect class="bar" x="662.1052631578948" y="340.3448275862069" width="17.894736842105203" height="129.65517241379308" fill="red"></rect><text x="70" y="40" style="fill: black; font: 14px sans-serif;">HOLLAND_P(1981)76:33</text><g class="x axis" transform="translate(0,470)"><g class="tick" transform="translate(71.57894736842105,0)" style="opacity: 1;"><line y2="6" x2="0"></line><text dy=".71em" y="9" x="0" style="text-anchor: middle;">1,985</text></g><g class="tick" transform="translate(161.05263157894737,0)" style="opacity: 1;"><line y2="6" x2="0"></line><text dy=".71em" y="9" x="0" style="text-anchor: middle;">1,990</text></g><g class="tick" transform="translate(250.52631578947367,0)" style="opacity: 1;"><line y2="6" x2="0"></line><text dy=".71em" y="9" x="0" style="text-anchor: middle;">1,995</text></g><g class="tick" transform="translate(340,0)" style="opacity: 1;"><line y2="6" x2="0"></line><text dy=".71em" y="9" x="0" style="text-anchor: middle;">2,000</text></g><g class="tick" transform="translate(429.4736842105263,0)" style="opacity: 1;"><line y2="6" x2="0"></line><text dy=".71em" y="9" x="0" style="text-anchor: middle;">2,005</text></g><g class="tick" transform="translate(518.9473684210527,0)" style="opacity: 1;"><line y2="6" x2="0"></line><text dy=".71em" y="9" x="0" style="text-anchor: middle;">2,010</text></g><g class="tick" transform="translate(608.421052631579,0)" style="opacity: 1;"><line y2="6" x2="0"></line><text dy=".71em" y="9" x="0" style="text-anchor: middle;">2,015</text></g><path class="domain" d="M0,6V0H680V6"></path></g><g class="y axis"><g class="tick" transform="translate(0,470)" style="opacity: 1;"><line x2="-6" y2="0"></line><text dy=".32em" x="-9" y="0" style="text-anchor: end;">0</text></g><g class="tick" transform="translate(0,388.9655172413793)" style="opacity: 1;"><line x2="-6" y2="0"></line><text dy=".32em" x="-9" y="0" style="text-anchor: end;">5</text></g><g class="tick" transform="translate(0,307.9310344827586)" style="opacity: 1;"><line x2="-6" y2="0"></line><text dy=".32em" x="-9" y="0" style="text-anchor: end;">10</text></g><g class="tick" transform="translate(0,226.8965517241379)" style="opacity: 1;"><line x2="-6" y2="0"></line><text dy=".32em" x="-9" y="0" style="text-anchor: end;">15</text></g><g class="tick" transform="translate(0,145.8620689655172)" style="opacity: 1;"><line x2="-6" y2="0"></line><text dy=".32em" x="-9" y="0" style="text-anchor: end;">20</text></g><g class="tick" transform="translate(0,64.82758620689658)" style="opacity: 1;"><line x2="-6" y2="0"></line><text dy=".32em" x="-9" y="0" style="text-anchor: end;">25</text></g><path class="domain" d="M-6,0H0V470H-6"></path></g></g></svg>
