<svg width="800" height="500" xmlns="http://www.w3.org/2000/svg"><g transform="translate(100,10)"><style type="text/css"> .axis path, .axis line { fill: none; stroke: #777; shape-rendering: crispEdges; } .axis text { font-family: 'Arial'; font-size: 13px; } .tick { stroke-dasharray: 1, 2; }</style><rect class="bar" x="0" y="470" width="28.333333333333332" height="0" fill="red"></rect><rect class="bar" x="28.333333333333332" y="435.18518518518516" width="14.166666666666668" height="34.81481481481484" fill="red"></rect><rect class="bar" x="42.5" y="452.5925925925926" width="28.333333333333343" height="17.40740740740739" fill="red"></rect><rect class="bar" x="70.83333333333334" y="417.77777777777777" width="14.166666666666657" height="52.22222222222223" fill="red"></rect><rect class="bar" x="85" y="435.18518518518516" width="28.33333333333333" height="34.81481481481484" fill="red"></rect><rect class="bar" x="113.33333333333333" y="452.5925925925926" width="14.166666666666671" height="17.40740740740739" fill="red"></rect><rect class="bar" x="127.5" y="400.3703703703704" width="14.166666666666686" height="69.62962962962962" fill="red"></rect><rect class="bar" x="141.66666666666669" y="435.18518518518516" width="14.166666666666629" height="34.81481481481484" fill="red"></rect><rect class="bar" x="155.83333333333331" y="382.962962962963" width="14.166666666666686" height="87.03703703703701" fill="red"></rect><rect class="bar" x="170" y="365.55555555555554" width="14.166666666666657" height="104.44444444444446" fill="red"></rect><rect class="bar" x="184.16666666666666" y="348.14814814814815" width="14.166666666666686" height="121.85185185185185" fill="red"></rect><rect class="bar" x="198.33333333333334" y="382.962962962963" width="14.166666666666657" height="87.03703703703701" fill="red"></rect><rect class="bar" x="212.5" y="417.77777777777777" width="28.333333333333343" height="52.22222222222223" fill="red"></rect><rect class="bar" x="240.83333333333334" y="278.5185185185185" width="14.166666666666657" height="191.48148148148152" fill="red"></rect><rect class="bar" x="255" y="400.3703703703704" width="14.166666666666629" height="69.62962962962962" fill="red"></rect><rect class="bar" x="269.16666666666663" y="382.962962962963" width="14.166666666666742" height="87.03703703703701" fill="red"></rect><rect class="bar" x="283.33333333333337" y="435.18518518518516" width="14.166666666666629" height="34.81481481481484" fill="red"></rect><rect class="bar" x="297.5" y="330.74074074074076" width="14.166666666666629" height="139.25925925925924" fill="red"></rect><rect class="bar" x="311.66666666666663" y="313.33333333333337" width="14.166666666666742" height="156.66666666666663" fill="red"></rect><rect class="bar" x="325.83333333333337" y="348.14814814814815" width="14.166666666666629" height="121.85185185185185" fill="red"></rect><rect class="bar" x="340" y="452.5925925925926" width="14.166666666666686" height="17.40740740740739" fill="red"></rect><rect class="bar" x="354.1666666666667" y="400.3703703703704" width="14.166666666666629" height="69.62962962962962" fill="red"></rect><rect class="bar" x="368.3333333333333" y="348.14814814814815" width="14.166666666666686" height="121.85185185185185" fill="red"></rect><rect class="bar" x="382.5" y="470" width="14.166666666666686" height="0" fill="red"></rect><rect class="bar" x="396.6666666666667" y="400.3703703703704" width="14.166666666666629" height="69.62962962962962" fill="red"></rect><rect class="bar" x="410.8333333333333" y="417.77777777777777" width="14.166666666666686" height="52.22222222222223" fill="red"></rect><rect class="bar" x="425" y="382.962962962963" width="14.166666666666686" height="87.03703703703701" fill="red"></rect><rect class="bar" x="439.1666666666667" y="435.18518518518516" width="14.166666666666629" height="34.81481481481484" fill="red"></rect><rect class="bar" x="453.3333333333333" y="382.962962962963" width="14.166666666666686" height="87.03703703703701" fill="red"></rect><rect class="bar" x="467.5" y="330.74074074074076" width="14.166666666666686" height="139.25925925925924" fill="red"></rect><rect class="bar" x="481.6666666666667" y="382.962962962963" width="14.166666666666629" height="87.03703703703701" fill="red"></rect><rect class="bar" x="495.8333333333333" y="313.33333333333337" width="14.166666666666686" height="156.66666666666663" fill="red"></rect><rect class="bar" x="510" y="295.9259259259259" width="14.166666666666742" height="174.07407407407408" fill="red"></rect><rect class="bar" x="524.1666666666667" y="208.88888888888889" width="14.166666666666515" height="261.1111111111111" fill="red"></rect><rect class="bar" x="538.3333333333333" y="330.74074074074076" width="14.166666666666742" height="139.25925925925924" fill="red"></rect><rect class="bar" x="552.5" y="156.66666666666669" width="14.166666666666742" height="313.3333333333333" fill="red"></rect><rect class="bar" x="566.6666666666667" y="208.88888888888889" width="14.166666666666515" height="261.1111111111111" fill="red"></rect><rect class="bar" x="580.8333333333333" y="174.07407407407408" width="14.166666666666742" height="295.9259259259259" fill="red"></rect><rect class="bar" x="595" y="69.62962962962962" width="14.166666666666742" height="400.3703703703704" fill="red"></rect><rect class="bar" x="609.1666666666667" y="139.25925925925924" width="28.333333333333258" height="330.74074074074076" fill="red"></rect><rect class="bar" x="637.5" y="0" width="14.166666666666742" height="470" fill="red"></rect><rect class="bar" x="651.6666666666667" y="139.25925925925924" width="14.166666666666515" height="330.74074074074076" fill="red"></rect><rect class="bar" x="665.8333333333333" y="365.55555555555554" width="14.166666666666742" height="104.44444444444446" fill="red"></rect><text x="70" y="40" style="fill: black; font: 14px sans-serif;">LORRAIN_F(1971)1:49</text><g class="x axis" transform="translate(0,470)"><g class="tick" transform="translate(56.666666666666664,0)" style="opacity: 1;"><line y2="6" x2="0"></line><text dy=".71em" y="9" x="0" style="text-anchor: middle;">1,975</text></g><g class="tick" transform="translate(127.5,0)" style="opacity: 1;"><line y2="6" x2="0"></line><text dy=".71em" y="9" x="0" style="text-anchor: middle;">1,980</text></g><g class="tick" transform="translate(198.33333333333334,0)" style="opacity: 1;"><line y2="6" x2="0"></line><text dy=".71em" y="9" x="0" style="text-anchor: middle;">1,985</text></g><g class="tick" transform="translate(269.16666666666663,0)" style="opacity: 1;"><line y2="6" x2="0"></line><text dy=".71em" y="9" x="0" style="text-anchor: middle;">1,990</text></g><g class="tick" transform="translate(340,0)" style="opacity: 1;"><line y2="6" x2="0"></line><text dy=".71em" y="9" x="0" style="text-anchor: middle;">1,995</text></g><g class="tick" transform="translate(410.8333333333333,0)" style="opacity: 1;"><line y2="6" x2="0"></line><text dy=".71em" y="9" x="0" style="text-anchor: middle;">2,000</text></g><g class="tick" transform="translate(481.6666666666667,0)" style="opacity: 1;"><line y2="6" x2="0"></line><text dy=".71em" y="9" x="0" style="text-anchor: middle;">2,005</text></g><g class="tick" transform="translate(552.5,0)" style="opacity: 1;"><line y2="6" x2="0"></line><text dy=".71em" y="9" x="0" style="text-anchor: middle;">2,010</text></g><g class="tick" transform="translate(623.3333333333333,0)" style="opacity: 1;"><line y2="6" x2="0"></line><text dy=".71em" y="9" x="0" style="text-anchor: middle;">2,015</text></g><path class="domain" d="M0,6V0H680V6"></path></g><g class="y axis"><g class="tick" transform="translate(0,470)" style="opacity: 1;"><line x2="-6" y2="0"></line><text dy=".32em" x="-9" y="0" style="text-anchor: end;">0</text></g><g class="tick" transform="translate(0,435.18518518518516)" style="opacity: 1;"><line x2="-6" y2="0"></line><text dy=".32em" x="-9" y="0" style="text-anchor: end;">2</text></g><g class="tick" transform="translate(0,400.3703703703704)" style="opacity: 1;"><line x2="-6" y2="0"></line><text dy=".32em" x="-9" y="0" style="text-anchor: end;">4</text></g><g class="tick" transform="translate(0,365.55555555555554)" style="opacity: 1;"><line x2="-6" y2="0"></line><text dy=".32em" x="-9" y="0" style="text-anchor: end;">6</text></g><g class="tick" transform="translate(0,330.74074074074076)" style="opacity: 1;"><line x2="-6" y2="0"></line><text dy=".32em" x="-9" y="0" style="text-anchor: end;">8</text></g><g class="tick" transform="translate(0,295.9259259259259)" style="opacity: 1;"><line x2="-6" y2="0"></line><text dy=".32em" x="-9" y="0" style="text-anchor: end;">10</text></g><g class="tick" transform="translate(0,261.11111111111114)" style="opacity: 1;"><line x2="-6" y2="0"></line><text dy=".32em" x="-9" y="0" style="text-anchor: end;">12</text></g><g class="tick" transform="translate(0,226.2962962962963)" style="opacity: 1;"><line x2="-6" y2="0"></line><text dy=".32em" x="-9" y="0" style="text-anchor: end;">14</text></g><g class="tick" transform="translate(0,191.4814814814815)" style="opacity: 1;"><line x2="-6" y2="0"></line><text dy=".32em" x="-9" y="0" style="text-anchor: end;">16</text></g><g class="tick" transform="translate(0,156.66666666666669)" style="opacity: 1;"><line x2="-6" y2="0"></line><text dy=".32em" x="-9" y="0" style="text-anchor: end;">18</text></g><g class="tick" transform="translate(0,121.85185185185188)" style="opacity: 1;"><line x2="-6" y2="0"></line><text dy=".32em" x="-9" y="0" style="text-anchor: end;">20</text></g><g class="tick" transform="translate(0,87.03703703703705)" style="opacity: 1;"><line x2="-6" y2="0"></line><text dy=".32em" x="-9" y="0" style="text-anchor: end;">22</text></g><g class="tick" transform="translate(0,52.22222222222224)" style="opacity: 1;"><line x2="-6" y2="0"></line><text dy=".32em" x="-9" y="0" style="text-anchor: end;">24</text></g><g class="tick" transform="translate(0,17.407407407407433)" style="opacity: 1;"><line x2="-6" y2="0"></line><text dy=".32em" x="-9" y="0" style="text-anchor: end;">26</text></g><path class="domain" d="M-6,0H0V470H-6"></path></g></g></svg>
