<svg width="800" height="500" xmlns="http://www.w3.org/2000/svg"><g transform="translate(100,10)"><style type="text/css"> .axis path, .axis line { fill: none; stroke: #777; shape-rendering: crispEdges; } .axis text { font-family: 'Arial'; font-size: 13px; } .tick { stroke-dasharray: 1, 2; }</style><rect class="bar" x="0" y="470" width="37.77777777777778" height="0" fill="red"></rect><rect class="bar" x="37.77777777777778" y="468.7728459530026" width="37.77777777777778" height="1.2271540469973843" fill="red"></rect><rect class="bar" x="75.55555555555556" y="463.8642297650131" width="37.77777777777777" height="6.135770234986921" fill="red"></rect><rect class="bar" x="113.33333333333333" y="452.81984334203656" width="37.777777777777786" height="17.180156657963437" fill="red"></rect><rect class="bar" x="151.11111111111111" y="449.1383812010444" width="37.77777777777777" height="20.86161879895559" fill="red"></rect><rect class="bar" x="188.88888888888889" y="434.4125326370757" width="37.77777777777777" height="35.587467362924315" fill="red"></rect><rect class="bar" x="226.66666666666666" y="430.7310704960836" width="37.7777777777778" height="39.26892950391641" fill="red"></rect><rect class="bar" x="264.44444444444446" y="397.59791122715404" width="37.77777777777777" height="72.40208877284596" fill="red"></rect><rect class="bar" x="302.22222222222223" y="350.96605744125327" width="37.77777777777777" height="119.03394255874673" fill="red"></rect><rect class="bar" x="340" y="316.6057441253264" width="37.77777777777777" height="153.3942558746736" fill="red"></rect><rect class="bar" x="377.77777777777777" y="290.8355091383812" width="37.77777777777783" height="179.1644908616188" fill="red"></rect><rect class="bar" x="415.5555555555556" y="229.47780678851174" width="37.777777777777715" height="240.52219321148826" fill="red"></rect><rect class="bar" x="453.3333333333333" y="191.43603133159272" width="37.77777777777777" height="278.56396866840726" fill="red"></rect><rect class="bar" x="491.1111111111111" y="160.757180156658" width="37.77777777777783" height="309.242819843342" fill="red"></rect><rect class="bar" x="528.8888888888889" y="0" width="37.77777777777783" height="470" fill="red"></rect><rect class="bar" x="566.6666666666667" y="24.5430809399478" width="37.777777777777715" height="445.4569190600522" fill="red"></rect><rect class="bar" x="604.4444444444445" y="61.35770234986944" width="37.777777777777715" height="408.64229765013056" fill="red"></rect><rect class="bar" x="642.2222222222222" y="285.9268929503917" width="37.77777777777783" height="184.07310704960832" fill="red"></rect><text x="70" y="40" style="fill: black; font: 14px sans-serif;">MCPHERSO_M(2001)27:415</text><g class="x axis" transform="translate(0,470)"><g class="tick" transform="translate(37.77777777777778,0)" style="opacity: 1;"><line y2="6" x2="0"></line><text dy=".71em" y="9" x="0" style="text-anchor: middle;">2,002</text></g><g class="tick" transform="translate(113.33333333333333,0)" style="opacity: 1;"><line y2="6" x2="0"></line><text dy=".71em" y="9" x="0" style="text-anchor: middle;">2,004</text></g><g class="tick" transform="translate(188.88888888888889,0)" style="opacity: 1;"><line y2="6" x2="0"></line><text dy=".71em" y="9" x="0" style="text-anchor: middle;">2,006</text></g><g class="tick" transform="translate(264.44444444444446,0)" style="opacity: 1;"><line y2="6" x2="0"></line><text dy=".71em" y="9" x="0" style="text-anchor: middle;">2,008</text></g><g class="tick" transform="translate(340,0)" style="opacity: 1;"><line y2="6" x2="0"></line><text dy=".71em" y="9" x="0" style="text-anchor: middle;">2,010</text></g><g class="tick" transform="translate(415.5555555555556,0)" style="opacity: 1;"><line y2="6" x2="0"></line><text dy=".71em" y="9" x="0" style="text-anchor: middle;">2,012</text></g><g class="tick" transform="translate(491.1111111111111,0)" style="opacity: 1;"><line y2="6" x2="0"></line><text dy=".71em" y="9" x="0" style="text-anchor: middle;">2,014</text></g><g class="tick" transform="translate(566.6666666666667,0)" style="opacity: 1;"><line y2="6" x2="0"></line><text dy=".71em" y="9" x="0" style="text-anchor: middle;">2,016</text></g><g class="tick" transform="translate(642.2222222222222,0)" style="opacity: 1;"><line y2="6" x2="0"></line><text dy=".71em" y="9" x="0" style="text-anchor: middle;">2,018</text></g><path class="domain" d="M0,6V0H680V6"></path></g><g class="y axis"><g class="tick" transform="translate(0,470)" style="opacity: 1;"><line x2="-6" y2="0"></line><text dy=".32em" x="-9" y="0" style="text-anchor: end;">0</text></g><g class="tick" transform="translate(0,408.64229765013056)" style="opacity: 1;"><line x2="-6" y2="0"></line><text dy=".32em" x="-9" y="0" style="text-anchor: end;">50</text></g><g class="tick" transform="translate(0,347.2845953002611)" style="opacity: 1;"><line x2="-6" y2="0"></line><text dy=".32em" x="-9" y="0" style="text-anchor: end;">100</text></g><g class="tick" transform="translate(0,285.9268929503917)" style="opacity: 1;"><line x2="-6" y2="0"></line><text dy=".32em" x="-9" y="0" style="text-anchor: end;">150</text></g><g class="tick" transform="translate(0,224.56919060052218)" style="opacity: 1;"><line x2="-6" y2="0"></line><text dy=".32em" x="-9" y="0" style="text-anchor: end;">200</text></g><g class="tick" transform="translate(0,163.21148825065274)" style="opacity: 1;"><line x2="-6" y2="0"></line><text dy=".32em" x="-9" y="0" style="text-anchor: end;">250</text></g><g class="tick" transform="translate(0,101.85378590078328)" style="opacity: 1;"><line x2="-6" y2="0"></line><text dy=".32em" x="-9" y="0" style="text-anchor: end;">300</text></g><g class="tick" transform="translate(0,40.49608355091383)" style="opacity: 1;"><line x2="-6" y2="0"></line><text dy=".32em" x="-9" y="0" style="text-anchor: end;">350</text></g><path class="domain" d="M-6,0H0V470H-6"></path></g></g></svg>
