<svg width="800" height="500" xmlns="http://www.w3.org/2000/svg"><g transform="translate(100,10)"><style type="text/css"> .axis path, .axis line { fill: none; stroke: #777; shape-rendering: crispEdges; } .axis text { font-family: 'Arial'; font-size: 13px; } .tick { stroke-dasharray: 1, 2; }</style><rect class="bar" x="0" y="470" width="457.69230769230774" height="0" fill="red"></rect><rect class="bar" x="457.69230769230774" y="440.625" width="13.076923076923038" height="29.375" fill="red"></rect><rect class="bar" x="470.7692307692308" y="323.125" width="13.076923076923094" height="146.875" fill="red"></rect><rect class="bar" x="483.84615384615387" y="279.0625" width="13.076923076923038" height="190.9375" fill="red"></rect><rect class="bar" x="496.9230769230769" y="264.375" width="13.076923076923094" height="205.625" fill="red"></rect><rect class="bar" x="510" y="161.5625" width="13.076923076923094" height="308.4375" fill="red"></rect><rect class="bar" x="523.0769230769231" y="0" width="13.076923076923094" height="470" fill="red"></rect><rect class="bar" x="536.1538461538462" y="146.875" width="13.076923076923094" height="323.125" fill="red"></rect><rect class="bar" x="549.2307692307693" y="14.6875" width="13.07692307692298" height="455.3125" fill="red"></rect><rect class="bar" x="562.3076923076923" y="161.5625" width="13.076923076923094" height="308.4375" fill="red"></rect><rect class="bar" x="575.3846153846154" y="73.4375" width="26.15384615384619" height="396.5625" fill="red"></rect><rect class="bar" x="601.5384615384615" y="44.0625" width="13.076923076923094" height="425.9375" fill="red"></rect><rect class="bar" x="614.6153846153846" y="58.75" width="13.076923076923094" height="411.25" fill="red"></rect><rect class="bar" x="627.6923076923077" y="146.875" width="13.07692307692298" height="323.125" fill="red"></rect><rect class="bar" x="640.7692307692307" y="440.625" width="13.076923076923094" height="29.375" fill="red"></rect><rect class="bar" x="653.8461538461538" y="470" width="26.15384615384619" height="0" fill="red"></rect><text x="70" y="40" style="fill: black; font: 14px sans-serif;">MILGRAM_S(1967)2:60</text><g class="x axis" transform="translate(0,470)"><g class="tick" transform="translate(39.23076923076923,0)" style="opacity: 1;"><line y2="6" x2="0"></line><text dy=".71em" y="9" x="0" style="text-anchor: middle;">1,970</text></g><g class="tick" transform="translate(104.61538461538463,0)" style="opacity: 1;"><line y2="6" x2="0"></line><text dy=".71em" y="9" x="0" style="text-anchor: middle;">1,975</text></g><g class="tick" transform="translate(170,0)" style="opacity: 1;"><line y2="6" x2="0"></line><text dy=".71em" y="9" x="0" style="text-anchor: middle;">1,980</text></g><g class="tick" transform="translate(235.3846153846154,0)" style="opacity: 1;"><line y2="6" x2="0"></line><text dy=".71em" y="9" x="0" style="text-anchor: middle;">1,985</text></g><g class="tick" transform="translate(300.7692307692308,0)" style="opacity: 1;"><line y2="6" x2="0"></line><text dy=".71em" y="9" x="0" style="text-anchor: middle;">1,990</text></g><g class="tick" transform="translate(366.15384615384613,0)" style="opacity: 1;"><line y2="6" x2="0"></line><text dy=".71em" y="9" x="0" style="text-anchor: middle;">1,995</text></g><g class="tick" transform="translate(431.5384615384615,0)" style="opacity: 1;"><line y2="6" x2="0"></line><text dy=".71em" y="9" x="0" style="text-anchor: middle;">2,000</text></g><g class="tick" transform="translate(496.9230769230769,0)" style="opacity: 1;"><line y2="6" x2="0"></line><text dy=".71em" y="9" x="0" style="text-anchor: middle;">2,005</text></g><g class="tick" transform="translate(562.3076923076923,0)" style="opacity: 1;"><line y2="6" x2="0"></line><text dy=".71em" y="9" x="0" style="text-anchor: middle;">2,010</text></g><g class="tick" transform="translate(627.6923076923077,0)" style="opacity: 1;"><line y2="6" x2="0"></line><text dy=".71em" y="9" x="0" style="text-anchor: middle;">2,015</text></g><path class="domain" d="M0,6V0H680V6"></path></g><g class="y axis"><g class="tick" transform="translate(0,470)" style="opacity: 1;"><line x2="-6" y2="0"></line><text dy=".32em" x="-9" y="0" style="text-anchor: end;">0</text></g><g class="tick" transform="translate(0,396.5625)" style="opacity: 1;"><line x2="-6" y2="0"></line><text dy=".32em" x="-9" y="0" style="text-anchor: end;">5</text></g><g class="tick" transform="translate(0,323.125)" style="opacity: 1;"><line x2="-6" y2="0"></line><text dy=".32em" x="-9" y="0" style="text-anchor: end;">10</text></g><g class="tick" transform="translate(0,249.6875)" style="opacity: 1;"><line x2="-6" y2="0"></line><text dy=".32em" x="-9" y="0" style="text-anchor: end;">15</text></g><g class="tick" transform="translate(0,176.25)" style="opacity: 1;"><line x2="-6" y2="0"></line><text dy=".32em" x="-9" y="0" style="text-anchor: end;">20</text></g><g class="tick" transform="translate(0,102.8125)" style="opacity: 1;"><line x2="-6" y2="0"></line><text dy=".32em" x="-9" y="0" style="text-anchor: end;">25</text></g><g class="tick" transform="translate(0,29.375)" style="opacity: 1;"><line x2="-6" y2="0"></line><text dy=".32em" x="-9" y="0" style="text-anchor: end;">30</text></g><path class="domain" d="M-6,0H0V470H-6"></path></g></g></svg>
