<svg width="800" height="500" xmlns="http://www.w3.org/2000/svg"><g transform="translate(100,10)"><style type="text/css"> .axis path, .axis line { fill: none; stroke: #777; shape-rendering: crispEdges; } .axis text { font-family: 'Arial'; font-size: 13px; } .tick { stroke-dasharray: 1, 2; }</style><rect class="bar" x="0" y="470" width="13.6" height="0" fill="red"></rect><rect class="bar" x="13.6" y="455.3125" width="13.6" height="14.6875" fill="red"></rect><rect class="bar" x="27.2" y="470" width="27.2" height="0" fill="red"></rect><rect class="bar" x="54.4" y="425.9375" width="13.600000000000001" height="44.0625" fill="red"></rect><rect class="bar" x="68" y="470" width="13.599999999999994" height="0" fill="red"></rect><rect class="bar" x="81.6" y="455.3125" width="13.600000000000009" height="14.6875" fill="red"></rect><rect class="bar" x="95.2" y="470" width="13.599999999999994" height="0" fill="red"></rect><rect class="bar" x="108.8" y="455.3125" width="13.599999999999994" height="14.6875" fill="red"></rect><rect class="bar" x="122.39999999999999" y="425.9375" width="13.600000000000009" height="44.0625" fill="red"></rect><rect class="bar" x="136" y="470" width="13.599999999999994" height="0" fill="red"></rect><rect class="bar" x="149.6" y="440.625" width="13.599999999999994" height="29.375" fill="red"></rect><rect class="bar" x="163.2" y="470" width="27.200000000000017" height="0" fill="red"></rect><rect class="bar" x="190.4" y="455.3125" width="13.599999999999994" height="14.6875" fill="red"></rect><rect class="bar" x="204" y="470" width="13.599999999999994" height="0" fill="red"></rect><rect class="bar" x="217.6" y="455.3125" width="13.600000000000023" height="14.6875" fill="red"></rect><rect class="bar" x="231.20000000000002" y="470" width="54.39999999999995" height="0" fill="red"></rect><rect class="bar" x="285.59999999999997" y="455.3125" width="13.600000000000023" height="14.6875" fill="red"></rect><rect class="bar" x="299.2" y="470" width="81.60000000000002" height="0" fill="red"></rect><rect class="bar" x="380.8" y="440.625" width="13.599999999999966" height="29.375" fill="red"></rect><rect class="bar" x="394.4" y="455.3125" width="13.600000000000023" height="14.6875" fill="red"></rect><rect class="bar" x="408" y="470" width="13.600000000000023" height="0" fill="red"></rect><rect class="bar" x="421.6" y="455.3125" width="13.599999999999966" height="14.6875" fill="red"></rect><rect class="bar" x="435.2" y="470" width="13.600000000000023" height="0" fill="red"></rect><rect class="bar" x="448.8" y="440.625" width="13.600000000000023" height="29.375" fill="red"></rect><rect class="bar" x="462.40000000000003" y="396.5625" width="27.199999999999932" height="73.4375" fill="red"></rect><rect class="bar" x="489.59999999999997" y="337.8125" width="13.600000000000023" height="132.1875" fill="red"></rect><rect class="bar" x="503.2" y="293.75" width="13.599999999999966" height="176.25" fill="red"></rect><rect class="bar" x="516.8" y="352.5" width="13.600000000000023" height="117.5" fill="red"></rect><rect class="bar" x="530.4" y="308.4375" width="13.600000000000023" height="161.5625" fill="red"></rect><rect class="bar" x="544" y="176.25" width="13.600000000000023" height="293.75" fill="red"></rect><rect class="bar" x="557.6" y="205.625" width="27.199999999999932" height="264.375" fill="red"></rect><rect class="bar" x="584.8" y="117.5" width="27.200000000000045" height="352.5" fill="red"></rect><rect class="bar" x="612" y="0" width="13.600000000000023" height="470" fill="red"></rect><rect class="bar" x="625.6" y="73.4375" width="27.199999999999932" height="396.5625" fill="red"></rect><rect class="bar" x="652.8" y="293.75" width="13.600000000000023" height="176.25" fill="red"></rect><rect class="bar" x="666.4" y="381.875" width="13.600000000000023" height="88.125" fill="red"></rect><text x="70" y="40" style="fill: black; font: 14px sans-serif;">TRAVERS_J(1969)32:425</text><g class="x axis" transform="translate(0,470)"><g class="tick" transform="translate(13.6,0)" style="opacity: 1;"><line y2="6" x2="0"></line><text dy=".71em" y="9" x="0" style="text-anchor: middle;">1,970</text></g><g class="tick" transform="translate(81.6,0)" style="opacity: 1;"><line y2="6" x2="0"></line><text dy=".71em" y="9" x="0" style="text-anchor: middle;">1,975</text></g><g class="tick" transform="translate(149.6,0)" style="opacity: 1;"><line y2="6" x2="0"></line><text dy=".71em" y="9" x="0" style="text-anchor: middle;">1,980</text></g><g class="tick" transform="translate(217.6,0)" style="opacity: 1;"><line y2="6" x2="0"></line><text dy=".71em" y="9" x="0" style="text-anchor: middle;">1,985</text></g><g class="tick" transform="translate(285.59999999999997,0)" style="opacity: 1;"><line y2="6" x2="0"></line><text dy=".71em" y="9" x="0" style="text-anchor: middle;">1,990</text></g><g class="tick" transform="translate(353.6,0)" style="opacity: 1;"><line y2="6" x2="0"></line><text dy=".71em" y="9" x="0" style="text-anchor: middle;">1,995</text></g><g class="tick" transform="translate(421.6,0)" style="opacity: 1;"><line y2="6" x2="0"></line><text dy=".71em" y="9" x="0" style="text-anchor: middle;">2,000</text></g><g class="tick" transform="translate(489.59999999999997,0)" style="opacity: 1;"><line y2="6" x2="0"></line><text dy=".71em" y="9" x="0" style="text-anchor: middle;">2,005</text></g><g class="tick" transform="translate(557.6,0)" style="opacity: 1;"><line y2="6" x2="0"></line><text dy=".71em" y="9" x="0" style="text-anchor: middle;">2,010</text></g><g class="tick" transform="translate(625.6,0)" style="opacity: 1;"><line y2="6" x2="0"></line><text dy=".71em" y="9" x="0" style="text-anchor: middle;">2,015</text></g><path class="domain" d="M0,6V0H680V6"></path></g><g class="y axis"><g class="tick" transform="translate(0,470)" style="opacity: 1;"><line x2="-6" y2="0"></line><text dy=".32em" x="-9" y="0" style="text-anchor: end;">0</text></g><g class="tick" transform="translate(0,396.5625)" style="opacity: 1;"><line x2="-6" y2="0"></line><text dy=".32em" x="-9" y="0" style="text-anchor: end;">5</text></g><g class="tick" transform="translate(0,323.125)" style="opacity: 1;"><line x2="-6" y2="0"></line><text dy=".32em" x="-9" y="0" style="text-anchor: end;">10</text></g><g class="tick" transform="translate(0,249.6875)" style="opacity: 1;"><line x2="-6" y2="0"></line><text dy=".32em" x="-9" y="0" style="text-anchor: end;">15</text></g><g class="tick" transform="translate(0,176.25)" style="opacity: 1;"><line x2="-6" y2="0"></line><text dy=".32em" x="-9" y="0" style="text-anchor: end;">20</text></g><g class="tick" transform="translate(0,102.8125)" style="opacity: 1;"><line x2="-6" y2="0"></line><text dy=".32em" x="-9" y="0" style="text-anchor: end;">25</text></g><g class="tick" transform="translate(0,29.375)" style="opacity: 1;"><line x2="-6" y2="0"></line><text dy=".32em" x="-9" y="0" style="text-anchor: end;">30</text></g><path class="domain" d="M-6,0H0V470H-6"></path></g></g></svg>
