<svg width="800" height="500" xmlns="http://www.w3.org/2000/svg"><g transform="translate(100,10)"><style type="text/css"> .axis path, .axis line { fill: none; stroke: #777; shape-rendering: crispEdges; } .axis text { font-family: 'Arial'; font-size: 13px; } .tick { stroke-dasharray: 1, 2; }</style><rect class="bar" x="0" y="468.37651122625215" width="27.2" height="1.6234887737478516" fill="red"></rect><rect class="bar" x="27.2" y="464.31778929188255" width="27.2" height="5.682210708117452" fill="red"></rect><rect class="bar" x="54.4" y="460.25906735751295" width="27.199999999999996" height="9.740932642487053" fill="red"></rect><rect class="bar" x="81.6" y="451.32987910189985" width="27.200000000000003" height="18.67012089810015" fill="red"></rect><rect class="bar" x="108.8" y="448.8946459412781" width="27.200000000000003" height="21.1053540587219" fill="red"></rect><rect class="bar" x="136" y="436.7184801381693" width="27.19999999999999" height="33.2815198618307" fill="red"></rect><rect class="bar" x="163.2" y="444.83592400690844" width="27.200000000000017" height="25.164075993091558" fill="red"></rect><rect class="bar" x="190.4" y="426.1658031088083" width="27.19999999999999" height="43.83419689119171" fill="red"></rect><rect class="bar" x="217.6" y="439.153713298791" width="27.19999999999999" height="30.84628670120901" fill="red"></rect><rect class="bar" x="244.79999999999998" y="418.0483592400691" width="27.200000000000017" height="51.95164075993091" fill="red"></rect><rect class="bar" x="272" y="408.30742659758204" width="27.19999999999999" height="61.69257340241796" fill="red"></rect><rect class="bar" x="299.2" y="401.00172711571673" width="27.19999999999999" height="68.99827288428327" fill="red"></rect><rect class="bar" x="326.4" y="386.3903281519862" width="27.200000000000045" height="83.60967184801382" fill="red"></rect><rect class="bar" x="353.6" y="291.41623488773746" width="27.19999999999999" height="178.58376511226254" fill="red"></rect><rect class="bar" x="380.8" y="276.8048359240069" width="27.19999999999999" height="193.1951640759931" fill="red"></rect><rect class="bar" x="408" y="215.92400690846287" width="27.19999999999999" height="254.07599309153713" fill="red"></rect><rect class="bar" x="435.2" y="174.52504317789294" width="27.200000000000045" height="295.47495682210706" fill="red"></rect><rect class="bar" x="462.40000000000003" y="125.82037996545768" width="27.199999999999932" height="344.1796200345423" fill="red"></rect><rect class="bar" x="489.59999999999997" y="97.40932642487044" width="27.19999999999999" height="372.5906735751296" fill="red"></rect><rect class="bar" x="516.8" y="114.45595854922279" width="27.200000000000045" height="355.54404145077723" fill="red"></rect><rect class="bar" x="544" y="60.88082901554405" width="27.199999999999932" height="409.11917098445593" fill="red"></rect><rect class="bar" x="571.1999999999999" y="0" width="27.200000000000045" height="470" fill="red"></rect><rect class="bar" x="598.4" y="21.91709844559588" width="27.200000000000045" height="448.08290155440415" fill="red"></rect><rect class="bar" x="625.6" y="41.39896373056994" width="27.199999999999932" height="428.60103626943004" fill="red"></rect><rect class="bar" x="652.8" y="334.4386873920552" width="27.200000000000045" height="135.56131260794479" fill="red"></rect><text x="70" y="40" style="fill: black; font: 14px sans-serif;">#WASSERMA_S(1994):</text><g class="x axis" transform="translate(0,470)"><g class="tick" transform="translate(0,0)" style="opacity: 1;"><line y2="6" x2="0"></line><text dy=".71em" y="9" x="0" style="text-anchor: middle;">1,994</text></g><g class="tick" transform="translate(54.4,0)" style="opacity: 1;"><line y2="6" x2="0"></line><text dy=".71em" y="9" x="0" style="text-anchor: middle;">1,996</text></g><g class="tick" transform="translate(108.8,0)" style="opacity: 1;"><line y2="6" x2="0"></line><text dy=".71em" y="9" x="0" style="text-anchor: middle;">1,998</text></g><g class="tick" transform="translate(163.2,0)" style="opacity: 1;"><line y2="6" x2="0"></line><text dy=".71em" y="9" x="0" style="text-anchor: middle;">2,000</text></g><g class="tick" transform="translate(217.6,0)" style="opacity: 1;"><line y2="6" x2="0"></line><text dy=".71em" y="9" x="0" style="text-anchor: middle;">2,002</text></g><g class="tick" transform="translate(272,0)" style="opacity: 1;"><line y2="6" x2="0"></line><text dy=".71em" y="9" x="0" style="text-anchor: middle;">2,004</text></g><g class="tick" transform="translate(326.4,0)" style="opacity: 1;"><line y2="6" x2="0"></line><text dy=".71em" y="9" x="0" style="text-anchor: middle;">2,006</text></g><g class="tick" transform="translate(380.8,0)" style="opacity: 1;"><line y2="6" x2="0"></line><text dy=".71em" y="9" x="0" style="text-anchor: middle;">2,008</text></g><g class="tick" transform="translate(435.2,0)" style="opacity: 1;"><line y2="6" x2="0"></line><text dy=".71em" y="9" x="0" style="text-anchor: middle;">2,010</text></g><g class="tick" transform="translate(489.59999999999997,0)" style="opacity: 1;"><line y2="6" x2="0"></line><text dy=".71em" y="9" x="0" style="text-anchor: middle;">2,012</text></g><g class="tick" transform="translate(544,0)" style="opacity: 1;"><line y2="6" x2="0"></line><text dy=".71em" y="9" x="0" style="text-anchor: middle;">2,014</text></g><g class="tick" transform="translate(598.4,0)" style="opacity: 1;"><line y2="6" x2="0"></line><text dy=".71em" y="9" x="0" style="text-anchor: middle;">2,016</text></g><g class="tick" transform="translate(652.8,0)" style="opacity: 1;"><line y2="6" x2="0"></line><text dy=".71em" y="9" x="0" style="text-anchor: middle;">2,018</text></g><path class="domain" d="M0,6V0H680V6"></path></g><g class="y axis"><g class="tick" transform="translate(0,470)" style="opacity: 1;"><line x2="-6" y2="0"></line><text dy=".32em" x="-9" y="0" style="text-anchor: end;">0</text></g><g class="tick" transform="translate(0,429.412780656304)" style="opacity: 1;"><line x2="-6" y2="0"></line><text dy=".32em" x="-9" y="0" style="text-anchor: end;">50</text></g><g class="tick" transform="translate(0,388.82556131260793)" style="opacity: 1;"><line x2="-6" y2="0"></line><text dy=".32em" x="-9" y="0" style="text-anchor: end;">100</text></g><g class="tick" transform="translate(0,348.2383419689119)" style="opacity: 1;"><line x2="-6" y2="0"></line><text dy=".32em" x="-9" y="0" style="text-anchor: end;">150</text></g><g class="tick" transform="translate(0,307.65112262521586)" style="opacity: 1;"><line x2="-6" y2="0"></line><text dy=".32em" x="-9" y="0" style="text-anchor: end;">200</text></g><g class="tick" transform="translate(0,267.06390328151986)" style="opacity: 1;"><line x2="-6" y2="0"></line><text dy=".32em" x="-9" y="0" style="text-anchor: end;">250</text></g><g class="tick" transform="translate(0,226.47668393782385)" style="opacity: 1;"><line x2="-6" y2="0"></line><text dy=".32em" x="-9" y="0" style="text-anchor: end;">300</text></g><g class="tick" transform="translate(0,185.88946459412782)" style="opacity: 1;"><line x2="-6" y2="0"></line><text dy=".32em" x="-9" y="0" style="text-anchor: end;">350</text></g><g class="tick" transform="translate(0,145.30224525043178)" style="opacity: 1;"><line x2="-6" y2="0"></line><text dy=".32em" x="-9" y="0" style="text-anchor: end;">400</text></g><g class="tick" transform="translate(0,104.71502590673576)" style="opacity: 1;"><line x2="-6" y2="0"></line><text dy=".32em" x="-9" y="0" style="text-anchor: end;">450</text></g><g class="tick" transform="translate(0,64.12780656303973)" style="opacity: 1;"><line x2="-6" y2="0"></line><text dy=".32em" x="-9" y="0" style="text-anchor: end;">500</text></g><g class="tick" transform="translate(0,23.540587219343692)" style="opacity: 1;"><line x2="-6" y2="0"></line><text dy=".32em" x="-9" y="0" style="text-anchor: end;">550</text></g><path class="domain" d="M-6,0H0V470H-6"></path></g></g></svg>