<svg width="800" height="500" xmlns="http://www.w3.org/2000/svg"><g transform="translate(100,10)"><style type="text/css"> .axis path, .axis line { fill: none; stroke: #777; shape-rendering: crispEdges; } .axis text { font-family: 'Arial'; font-size: 13px; } .tick { stroke-dasharray: 1, 2; }</style><rect class="bar" x="0" y="470" width="32.38095238095238" height="0" fill="red"></rect><rect class="bar" x="32.38095238095238" y="462.07865168539325" width="32.38095238095238" height="7.921348314606746" fill="red"></rect><rect class="bar" x="64.76190476190476" y="454.1573033707865" width="32.38095238095238" height="15.842696629213492" fill="red"></rect><rect class="bar" x="97.14285714285714" y="442.2752808988764" width="32.38095238095238" height="27.724719101123583" fill="red"></rect><rect class="bar" x="129.52380952380952" y="430.3932584269663" width="32.38095238095238" height="39.60674157303367" fill="red"></rect><rect class="bar" x="161.9047619047619" y="429.07303370786514" width="32.38095238095238" height="40.926966292134864" fill="red"></rect><rect class="bar" x="194.28571428571428" y="394.74719101123594" width="32.38095238095238" height="75.25280898876406" fill="red"></rect><rect class="bar" x="226.66666666666666" y="396.06741573033713" width="32.38095238095238" height="73.93258426966287" fill="red"></rect><rect class="bar" x="259.04761904761904" y="384.1853932584269" width="32.38095238095235" height="85.81460674157307" fill="red"></rect><rect class="bar" x="291.4285714285714" y="302.3314606741573" width="32.38095238095241" height="167.6685393258427" fill="red"></rect><rect class="bar" x="323.8095238095238" y="328.73595505617976" width="32.38095238095241" height="141.26404494382024" fill="red"></rect><rect class="bar" x="356.1904761904762" y="302.3314606741573" width="32.38095238095235" height="167.6685393258427" fill="red"></rect><rect class="bar" x="388.57142857142856" y="275.9269662921348" width="32.38095238095241" height="194.0730337078652" fill="red"></rect><rect class="bar" x="420.95238095238096" y="238.96067415730334" width="32.38095238095235" height="231.03932584269666" fill="red"></rect><rect class="bar" x="453.3333333333333" y="171.62921348314606" width="32.38095238095241" height="298.37078651685397" fill="red"></rect><rect class="bar" x="485.7142857142857" y="149.18539325842698" width="32.38095238095235" height="320.814606741573" fill="red"></rect><rect class="bar" x="518.0952380952381" y="68.65168539325843" width="32.38095238095241" height="401.34831460674155" fill="red"></rect><rect class="bar" x="550.4761904761905" y="0" width="32.380952380952294" height="470" fill="red"></rect><rect class="bar" x="582.8571428571428" y="7.921348314606761" width="32.38095238095252" height="462.07865168539325" fill="red"></rect><rect class="bar" x="615.2380952380953" y="44.88764044943821" width="32.380952380952294" height="425.1123595505618" fill="red"></rect><rect class="bar" x="647.6190476190476" y="279.8876404494382" width="32.38095238095241" height="190.1123595505618" fill="red"></rect><text x="70" y="40" style="fill: black; font: 14px sans-serif;">WATTS_D(1998)393:440</text><g class="x axis" transform="translate(0,470)"><g class="tick" transform="translate(0,0)" style="opacity: 1;"><line y2="6" x2="0"></line><text dy=".71em" y="9" x="0" style="text-anchor: middle;">1,998</text></g><g class="tick" transform="translate(64.76190476190476,0)" style="opacity: 1;"><line y2="6" x2="0"></line><text dy=".71em" y="9" x="0" style="text-anchor: middle;">2,000</text></g><g class="tick" transform="translate(129.52380952380952,0)" style="opacity: 1;"><line y2="6" x2="0"></line><text dy=".71em" y="9" x="0" style="text-anchor: middle;">2,002</text></g><g class="tick" transform="translate(194.28571428571428,0)" style="opacity: 1;"><line y2="6" x2="0"></line><text dy=".71em" y="9" x="0" style="text-anchor: middle;">2,004</text></g><g class="tick" transform="translate(259.04761904761904,0)" style="opacity: 1;"><line y2="6" x2="0"></line><text dy=".71em" y="9" x="0" style="text-anchor: middle;">2,006</text></g><g class="tick" transform="translate(323.8095238095238,0)" style="opacity: 1;"><line y2="6" x2="0"></line><text dy=".71em" y="9" x="0" style="text-anchor: middle;">2,008</text></g><g class="tick" transform="translate(388.57142857142856,0)" style="opacity: 1;"><line y2="6" x2="0"></line><text dy=".71em" y="9" x="0" style="text-anchor: middle;">2,010</text></g><g class="tick" transform="translate(453.3333333333333,0)" style="opacity: 1;"><line y2="6" x2="0"></line><text dy=".71em" y="9" x="0" style="text-anchor: middle;">2,012</text></g><g class="tick" transform="translate(518.0952380952381,0)" style="opacity: 1;"><line y2="6" x2="0"></line><text dy=".71em" y="9" x="0" style="text-anchor: middle;">2,014</text></g><g class="tick" transform="translate(582.8571428571428,0)" style="opacity: 1;"><line y2="6" x2="0"></line><text dy=".71em" y="9" x="0" style="text-anchor: middle;">2,016</text></g><g class="tick" transform="translate(647.6190476190476,0)" style="opacity: 1;"><line y2="6" x2="0"></line><text dy=".71em" y="9" x="0" style="text-anchor: middle;">2,018</text></g><path class="domain" d="M0,6V0H680V6"></path></g><g class="y axis"><g class="tick" transform="translate(0,470)" style="opacity: 1;"><line x2="-6" y2="0"></line><text dy=".32em" x="-9" y="0" style="text-anchor: end;">0</text></g><g class="tick" transform="translate(0,403.9887640449438)" style="opacity: 1;"><line x2="-6" y2="0"></line><text dy=".32em" x="-9" y="0" style="text-anchor: end;">50</text></g><g class="tick" transform="translate(0,337.97752808988764)" style="opacity: 1;"><line x2="-6" y2="0"></line><text dy=".32em" x="-9" y="0" style="text-anchor: end;">100</text></g><g class="tick" transform="translate(0,271.96629213483146)" style="opacity: 1;"><line x2="-6" y2="0"></line><text dy=".32em" x="-9" y="0" style="text-anchor: end;">150</text></g><g class="tick" transform="translate(0,205.95505617977526)" style="opacity: 1;"><line x2="-6" y2="0"></line><text dy=".32em" x="-9" y="0" style="text-anchor: end;">200</text></g><g class="tick" transform="translate(0,139.94382022471908)" style="opacity: 1;"><line x2="-6" y2="0"></line><text dy=".32em" x="-9" y="0" style="text-anchor: end;">250</text></g><g class="tick" transform="translate(0,73.93258426966294)" style="opacity: 1;"><line x2="-6" y2="0"></line><text dy=".32em" x="-9" y="0" style="text-anchor: end;">300</text></g><g class="tick" transform="translate(0,7.921348314606761)" style="opacity: 1;"><line x2="-6" y2="0"></line><text dy=".32em" x="-9" y="0" style="text-anchor: end;">350</text></g><path class="domain" d="M-6,0H0V470H-6"></path></g></g></svg>
