<svg width="800" height="500" xmlns="http://www.w3.org/2000/svg"><g transform="translate(100,10)"><style type="text/css"> .axis path, .axis line { fill: none; stroke: #777; shape-rendering: crispEdges; } .axis text { font-family: 'Arial'; font-size: 13px; } .tick { stroke-dasharray: 1, 2; }</style><rect class="bar" x="0" y="436.42857142857144" width="15.813953488372093" height="33.571428571428555" fill="red"></rect><rect class="bar" x="15.813953488372093" y="402.8571428571429" width="15.813953488372093" height="67.14285714285711" fill="red"></rect><rect class="bar" x="31.627906976744185" y="352.5" width="15.813953488372093" height="117.5" fill="red"></rect><rect class="bar" x="47.44186046511628" y="318.92857142857144" width="31.627906976744185" height="151.07142857142856" fill="red"></rect><rect class="bar" x="79.06976744186046" y="302.1428571428571" width="15.813953488372093" height="167.8571428571429" fill="red"></rect><rect class="bar" x="94.88372093023256" y="318.92857142857144" width="31.627906976744185" height="151.07142857142856" fill="red"></rect><rect class="bar" x="126.51162790697674" y="335.7142857142857" width="15.813953488372107" height="134.28571428571428" fill="red"></rect><rect class="bar" x="142.32558139534885" y="402.8571428571429" width="31.627906976744185" height="67.14285714285711" fill="red"></rect><rect class="bar" x="173.95348837209303" y="436.42857142857144" width="15.813953488372078" height="33.571428571428555" fill="red"></rect><rect class="bar" x="189.7674418604651" y="268.57142857142856" width="15.813953488372078" height="201.42857142857144" fill="red"></rect><rect class="bar" x="205.5813953488372" y="402.8571428571429" width="15.813953488372135" height="67.14285714285711" fill="red"></rect><rect class="bar" x="221.39534883720933" y="369.2857142857143" width="15.813953488372078" height="100.71428571428572" fill="red"></rect><rect class="bar" x="237.2093023255814" y="419.64285714285717" width="15.813953488372078" height="50.35714285714283" fill="red"></rect><rect class="bar" x="253.02325581395348" y="402.8571428571429" width="15.813953488372078" height="67.14285714285711" fill="red"></rect><rect class="bar" x="268.83720930232556" y="318.92857142857144" width="31.627906976744214" height="151.07142857142856" fill="red"></rect><rect class="bar" x="300.4651162790698" y="402.8571428571429" width="15.813953488372078" height="67.14285714285711" fill="red"></rect><rect class="bar" x="316.27906976744185" y="436.42857142857144" width="15.813953488372078" height="33.571428571428555" fill="red"></rect><rect class="bar" x="332.09302325581393" y="352.5" width="15.813953488372135" height="117.5" fill="red"></rect><rect class="bar" x="347.90697674418607" y="369.2857142857143" width="15.813953488372022" height="100.71428571428572" fill="red"></rect><rect class="bar" x="363.7209302325581" y="386.07142857142856" width="15.813953488372135" height="83.92857142857144" fill="red"></rect><rect class="bar" x="379.5348837209302" y="402.8571428571429" width="15.813953488372135" height="67.14285714285711" fill="red"></rect><rect class="bar" x="395.34883720930236" y="335.7142857142857" width="15.813953488372022" height="134.28571428571428" fill="red"></rect><rect class="bar" x="411.1627906976744" y="402.8571428571429" width="15.813953488372135" height="67.14285714285711" fill="red"></rect><rect class="bar" x="426.9767441860465" y="419.64285714285717" width="15.813953488372135" height="50.35714285714283" fill="red"></rect><rect class="bar" x="442.79069767441865" y="352.5" width="15.813953488372022" height="117.5" fill="red"></rect><rect class="bar" x="458.6046511627907" y="335.7142857142857" width="15.813953488372135" height="134.28571428571428" fill="red"></rect><rect class="bar" x="474.4186046511628" y="268.57142857142856" width="15.813953488372022" height="201.42857142857144" fill="red"></rect><rect class="bar" x="490.23255813953483" y="285.3571428571429" width="15.813953488372135" height="184.6428571428571" fill="red"></rect><rect class="bar" x="506.04651162790697" y="268.57142857142856" width="15.813953488372135" height="201.42857142857144" fill="red"></rect><rect class="bar" x="521.8604651162791" y="184.64285714285717" width="15.813953488372022" height="285.35714285714283" fill="red"></rect><rect class="bar" x="537.6744186046511" y="251.78571428571428" width="15.813953488372135" height="218.21428571428572" fill="red"></rect><rect class="bar" x="553.4883720930233" y="117.5" width="15.813953488372135" height="352.5" fill="red"></rect><rect class="bar" x="569.3023255813954" y="251.78571428571428" width="15.813953488372022" height="218.21428571428572" fill="red"></rect><rect class="bar" x="585.1162790697674" y="218.21428571428572" width="15.813953488372135" height="251.78571428571428" fill="red"></rect><rect class="bar" x="600.9302325581396" y="67.14285714285717" width="15.813953488372022" height="402.85714285714283" fill="red"></rect><rect class="bar" x="616.7441860465116" y="33.571428571428555" width="15.813953488372135" height="436.42857142857144" fill="red"></rect><rect class="bar" x="632.5581395348837" y="117.5" width="15.813953488372135" height="352.5" fill="red"></rect><rect class="bar" x="648.3720930232558" y="0" width="15.813953488372022" height="470" fill="red"></rect><rect class="bar" x="664.1860465116279" y="453.2142857142857" width="15.813953488372135" height="16.785714285714278" fill="red"></rect><text x="70" y="40" style="fill: black; font: 14px sans-serif;">WHITE_H(1976)81:730</text><g class="x axis" transform="translate(0,470)"><g class="tick" transform="translate(63.25581395348837,0)" style="opacity: 1;"><line y2="6" x2="0"></line><text dy=".71em" y="9" x="0" style="text-anchor: middle;">1,980</text></g><g class="tick" transform="translate(142.32558139534885,0)" style="opacity: 1;"><line y2="6" x2="0"></line><text dy=".71em" y="9" x="0" style="text-anchor: middle;">1,985</text></g><g class="tick" transform="translate(221.39534883720933,0)" style="opacity: 1;"><line y2="6" x2="0"></line><text dy=".71em" y="9" x="0" style="text-anchor: middle;">1,990</text></g><g class="tick" transform="translate(300.4651162790698,0)" style="opacity: 1;"><line y2="6" x2="0"></line><text dy=".71em" y="9" x="0" style="text-anchor: middle;">1,995</text></g><g class="tick" transform="translate(379.5348837209302,0)" style="opacity: 1;"><line y2="6" x2="0"></line><text dy=".71em" y="9" x="0" style="text-anchor: middle;">2,000</text></g><g class="tick" transform="translate(458.6046511627907,0)" style="opacity: 1;"><line y2="6" x2="0"></line><text dy=".71em" y="9" x="0" style="text-anchor: middle;">2,005</text></g><g class="tick" transform="translate(537.6744186046511,0)" style="opacity: 1;"><line y2="6" x2="0"></line><text dy=".71em" y="9" x="0" style="text-anchor: middle;">2,010</text></g><g class="tick" transform="translate(616.7441860465116,0)" style="opacity: 1;"><line y2="6" x2="0"></line><text dy=".71em" y="9" x="0" style="text-anchor: middle;">2,015</text></g><path class="domain" d="M0,6V0H680V6"></path></g><g class="y axis"><g class="tick" transform="translate(0,470)" style="opacity: 1;"><line x2="-6" y2="0"></line><text dy=".32em" x="-9" y="0" style="text-anchor: end;">0</text></g><g class="tick" transform="translate(0,436.42857142857144)" style="opacity: 1;"><line x2="-6" y2="0"></line><text dy=".32em" x="-9" y="0" style="text-anchor: end;">2</text></g><g class="tick" transform="translate(0,402.8571428571429)" style="opacity: 1;"><line x2="-6" y2="0"></line><text dy=".32em" x="-9" y="0" style="text-anchor: end;">4</text></g><g class="tick" transform="translate(0,369.2857142857143)" style="opacity: 1;"><line x2="-6" y2="0"></line><text dy=".32em" x="-9" y="0" style="text-anchor: end;">6</text></g><g class="tick" transform="translate(0,335.7142857142857)" style="opacity: 1;"><line x2="-6" y2="0"></line><text dy=".32em" x="-9" y="0" style="text-anchor: end;">8</text></g><g class="tick" transform="translate(0,302.1428571428571)" style="opacity: 1;"><line x2="-6" y2="0"></line><text dy=".32em" x="-9" y="0" style="text-anchor: end;">10</text></g><g class="tick" transform="translate(0,268.57142857142856)" style="opacity: 1;"><line x2="-6" y2="0"></line><text dy=".32em" x="-9" y="0" style="text-anchor: end;">12</text></g><g class="tick" transform="translate(0,235)" style="opacity: 1;"><line x2="-6" y2="0"></line><text dy=".32em" x="-9" y="0" style="text-anchor: end;">14</text></g><g class="tick" transform="translate(0,201.42857142857144)" style="opacity: 1;"><line x2="-6" y2="0"></line><text dy=".32em" x="-9" y="0" style="text-anchor: end;">16</text></g><g class="tick" transform="translate(0,167.85714285714283)" style="opacity: 1;"><line x2="-6" y2="0"></line><text dy=".32em" x="-9" y="0" style="text-anchor: end;">18</text></g><g class="tick" transform="translate(0,134.28571428571428)" style="opacity: 1;"><line x2="-6" y2="0"></line><text dy=".32em" x="-9" y="0" style="text-anchor: end;">20</text></g><g class="tick" transform="translate(0,100.71428571428572)" style="opacity: 1;"><line x2="-6" y2="0"></line><text dy=".32em" x="-9" y="0" style="text-anchor: end;">22</text></g><g class="tick" transform="translate(0,67.14285714285717)" style="opacity: 1;"><line x2="-6" y2="0"></line><text dy=".32em" x="-9" y="0" style="text-anchor: end;">24</text></g><g class="tick" transform="translate(0,33.571428571428555)" style="opacity: 1;"><line x2="-6" y2="0"></line><text dy=".32em" x="-9" y="0" style="text-anchor: end;">26</text></g><g class="tick" transform="translate(0,0)" style="opacity: 1;"><line x2="-6" y2="0"></line><text dy=".32em" x="-9" y="0" style="text-anchor: end;">28</text></g><path class="domain" d="M-6,0H0V470H-6"></path></g></g></svg>
